<?xml version="1.0" encoding="utf-8"?>
<!-- Generator: Adobe Illustrator 19.0.1, SVG Export Plug-In . SVG Version: 6.00 Build 0)  -->
<svg version="1.1" id="Layer_1" xmlns="http://www.w3.org/2000/svg" xmlns:xlink="http://www.w3.org/1999/xlink" x="0px" y="0px"
	 viewBox="0 0 100 1265" style="enable-background:new 0 0 100 1265;" xml:space="preserve">
<style type="text/css">
	.st0{fill:#84AD8D;}
</style>
<g>
	<path class="st0" d="M61.6736,1190.2842c-0.9172-1.2715-2.0206-2.2545-3.3102-2.947c-1.2896-0.6924-2.7017-1.0398-4.2342-1.0398
		c-2.4679,0-4.4601,0.8151-5.9744,2.443c-1.5155,1.6255-2.5349,3.8254-3.0582,6.593c-0.7447-2.243-1.8537-4.0865-3.3261-5.5283
		c-1.4712-1.4417-3.2886-2.1636-5.45-2.1636c-1.3418,0-2.5712,0.2905-3.6893,0.8718c-1.1181,0.5812-2.0785,1.4031-2.8799,2.4701
		s-1.4156,2.3475-1.8447,3.8438c-0.4291,1.4961-0.6436,3.1444-0.6436,4.9425v11.5607h37.2985V1200.78
		c0-2.1705-0.252-4.1434-0.756-5.9233C63.2992,1193.0812,62.5886,1191.5555,61.6736,1190.2842z M43.2803,1206.4037H31.3519v-6.1617
		c0-2.2386,0.4632-4.0594,1.3872-5.458c0.924-1.4008,2.3112-2.1023,4.1604-2.1023c0.999,0,1.8867,0.2247,2.6631,0.672
		c0.7776,0.4496,1.4439,1.0762,1.9979,1.8776c0.5551,0.8015,0.9808,1.755,1.2759,2.8562c0.2963,1.1011,0.4439,2.2861,0.4439,3.5553
		V1206.4037z M60.4726,1206.4037H47.3681v-5.2854c0-1.3486,0.1305-2.6223,0.3905-3.821c0.2611-1.1987,0.6595-2.2477,1.1987-3.1467
		c0.5392-0.9012,1.2271-1.6096,2.0638-2.1364c0.8355-0.5244,1.8117-0.7878,2.9288-0.7878c2.1546,0,3.7824,0.8333,4.879,2.502
		s1.6437,3.9072,1.6437,6.718V1206.4037z"/>
	<path class="st0" d="M63.4967,1136.6311l-3.9754,0.8401c0.4473,1.269,0.8128,2.6313,1.092,4.0865
		c0.2793,1.4576,0.42,2.8948,0.42,4.3137c0,4.6678-1.3055,8.3073-3.9209,10.9204c-2.6132,2.6132-6.3456,3.9186-11.1997,3.9186
		c-4.8529,0-8.5876-1.3054-11.2008-3.9186s-3.9198-6.2526-3.9198-10.9204c0-1.4189,0.1396-2.8561,0.42-4.3137
		c0.2793-1.4552,0.6436-2.8175,1.092-4.0865l-3.9765-0.8401c-0.5222,1.2306-0.9422,2.7631-1.26,4.5907
		c-0.3167,1.8298-0.4768,3.5848-0.4768,5.2649c0,3.0627,0.4859,5.7963,1.4564,8.2029c0.9717,2.411,2.3158,4.4362,4.0322,6.0776
		c1.7175,1.6438,3.7529,2.9038,6.105,3.7802c2.3521,0.8763,4.9278,1.3169,7.7283,1.3169c2.7994,0,5.3762-0.4406,7.7283-1.3169
		c2.3521-0.8763,4.3863-2.1364,6.105-3.7802c1.7164-1.6415,3.0604-3.6666,4.0322-6.0776c0.9694-2.4066,1.4553-5.1401,1.4553-8.2029
		c0-1.6801-0.1589-3.4351-0.4768-5.2649C64.4412,1139.3942,64.0211,1137.8617,63.4967,1136.6311z"/>
	<path class="st0" d="M27.263,1113.9548h37.2985v-10.3596c0-3.2103-0.4654-6.1232-1.4008-8.7363
		c-0.9331-2.6132-2.2295-4.8518-3.8914-6.7203c-1.6619-1.8662-3.6303-3.3033-5.9075-4.3114c-2.2783-1.0079-4.7609-1.512-7.449-1.512
		c-2.6881,0-5.1707,0.504-7.449,1.512c-2.276,1.0081-4.2467,2.4452-5.9075,4.3114c-1.6619,1.8685-2.9594,4.1072-3.8925,6.7203
		s-1.4008,5.526-1.4008,8.7363V1113.9548z M31.4075,1103.5952c0-2.2408,0.3269-4.3386,0.9808-6.3003
		c0.6527-1.9592,1.5961-3.6688,2.8277-5.1241s2.7539-2.6041,4.5645-3.4441c1.8106-0.8401,3.8551-1.2601,6.1322-1.2601
		c2.3146,0,4.3682,0.42,6.1595,1.2601c1.7936,0.84,3.3056,1.9888,4.5362,3.4441c1.2328,1.4553,2.175,3.1649,2.8289,5.1241
		c0.6539,1.9617,0.9808,4.0594,0.9808,6.3003v5.2104H31.4075V1103.5952z"/>
	<polygon class="st0" points="27.263,1060.0293 64.5615,1060.0293 64.5615,1039.0853 60.3613,1039.0853 60.3613,1054.8801 
		47.5929,1054.8801 47.5929,1039.9254 43.3927,1039.9254 43.3927,1054.8801 31.4643,1054.8801 31.4643,1039.2533 27.263,1039.2533 	
		"/>
	<polygon class="st0" points="27.263,994.793 27.263,1015.7938 64.5615,1015.7938 64.5615,1010.6446 48.4329,1010.6446 
		48.4329,995.465 44.2327,995.465 44.2327,1010.6446 31.4643,1010.6446 31.4643,994.793 	"/>
	<path class="st0" d="M63.1334,943.1651H48.0969v4.7042h12.1532c0.2611,0.8582,0.4745,1.8935,0.6425,3.1059
		c0.168,1.2146,0.252,2.4202,0.252,3.6144c0,5.0038-1.2759,8.7545-3.8278,11.2564c-2.5541,2.502-6.214,3.7506-10.9851,3.7506
		c-4.9562,0-8.7851-1.3236-11.4869-3.9753c-2.7017-2.6495-4.0526-6.2912-4.0526-10.9204c0-1.755,0.1862-3.4987,0.5596-5.2377
		c0.3735-1.7346,0.8775-3.4055,1.5121-5.0107l-4.0889-0.84c-0.7458,1.5325-1.2964,3.2489-1.6517,5.1514
		c-0.3542,1.9048-0.5324,3.9028-0.5324,5.9938c0,3.1353,0.4859,5.9347,1.4564,8.4003c0.9717,2.4634,2.3248,4.5544,4.0605,6.2708
		c1.7357,1.7186,3.8176,3.0332,6.2446,3.9504c2.427,0.9127,5.0958,1.3713,8.0075,1.3713c2.8005,0,5.358-0.4405,7.6738-1.3168
		c2.3135-0.8763,4.3023-2.1568,5.9642-3.8369c1.6619-1.6801,2.9492-3.7324,3.8641-6.1594c0.9127-2.427,1.3713-5.1696,1.3713-8.2323
		c0-2.2023-0.1998-4.4045-0.5948-6.609C64.2414,946.3936,63.7373,944.5818,63.1334,943.1651z"/>
	<polygon class="st0" points="64.5615,894.8406 64.5615,889.6892 27.263,889.6892 27.263,894.8406 43.4483,894.8406 
		43.4483,913.9366 27.263,913.9366 27.263,919.0903 64.5615,919.0903 64.5615,913.9366 47.8165,913.9366 47.8165,894.8406 	"/>
	<rect x="27.263" y="859.6206" class="st0" width="37.2985" height="5.1514"/>
	<path class="st0" d="M64.8703,830.7008c-1.4008-0.504-2.8198-0.84-4.2569-1.008c-1.4371-0.168-2.9583-0.2702-4.5634-0.3088H27.263
		v5.1537H56.89c2.6132,0,4.9925,0.3905,7.1403,1.176c2.1455,0.7833,4.3205,2.1478,6.5227,4.0867l2.8561-3.5826
		c-1.4939-1.4189-2.9401-2.5677-4.3386-3.4464C67.6696,831.895,66.2688,831.2048,64.8703,830.7008z"/>
	<polygon class="st0" points="64.5615,777.0251 45.7448,794.1617 27.263,778.0922 27.263,784.3084 45.352,799.8762 27.263,799.8762 
		27.263,805.0276 64.5615,805.0276 64.5615,799.8762 46.0808,799.8762 64.5615,783.5228 	"/>
	<polygon class="st0" points="64.5615,735.8727 60.3613,735.8727 60.3613,751.4405 27.263,751.4405 27.263,756.5919 
		64.5615,756.5919 	"/>
	<polygon class="st0" points="64.5615,675.1702 27.263,677.8583 27.263,682.5057 53.6411,695.2742 27.263,708.0427 27.263,712.6923 
		64.5615,715.3804 64.5615,710.4515 35.4964,708.6602 57.8412,697.9078 57.8412,692.6428 35.4964,681.8904 64.5615,680.0991 	"/>
	<polygon class="st0" points="64.5615,620.6862 27.263,620.6862 27.263,625.6129 56.5539,625.6129 27.263,646.5024 27.263,651.4313 
		64.5615,651.4313 64.5615,646.5024 35.2716,646.5024 64.5615,625.6129 	"/>
	<path class="st0" d="M32.3599,593.3057c1.755,1.5302,3.8085,2.6972,6.1606,3.5009c2.3521,0.8014,4.8154,1.2032,7.3923,1.2032
		c2.5757,0,5.0402-0.4019,7.3923-1.2032c2.3521-0.8037,4.4068-1.9707,6.1595-3.5009c1.755-1.5302,3.1558-3.4351,4.2002-5.7122
		c1.0466-2.2772,1.5688-4.8722,1.5688-7.785s-0.5222-5.5056-1.5688-7.785c-1.0444-2.2749-2.4452-4.1797-4.2002-5.7122
		c-1.7527-1.5302-3.8074-2.6949-6.1595-3.4986s-4.8166-1.2056-7.3923-1.2056c-2.5769,0-5.0402,0.4019-7.3923,1.2056
		s-4.4056,1.9684-6.1606,3.4986c-1.755,1.5325-3.1547,3.4373-4.2002,5.7122c-1.0455,2.2794-1.5688,4.8722-1.5688,7.785
		s0.5233,5.5079,1.5688,7.785S30.6049,591.7755,32.3599,593.3057z M31.9399,574.153c0.8026-1.6437,1.8855-3.0059,3.2477-4.0889
		c1.3633-1.0829,2.9685-1.9048,4.8166-2.4633c1.8481-0.5608,3.8176-0.84,5.9086-0.84c2.091,0,4.0594,0.2792,5.9075,0.84
		c1.8481,0.5585,3.4646,1.3804,4.8449,2.4633c1.3826,1.083,2.4633,2.4452,3.2489,4.0889c0.7833,1.6437,1.176,3.5281,1.176,5.6555
		c0,2.1296-0.3928,4.014-1.176,5.6577c-0.7855,1.6415-1.8662,3.0037-3.2489,4.0867c-1.3804,1.0829-2.9969,1.9048-4.8449,2.4656
		c-1.8481,0.5585-3.8165,0.84-5.9075,0.84c-2.091,0-4.0605-0.2815-5.9086-0.84c-1.8481-0.5608-3.4532-1.3826-4.8166-2.4656
		c-1.3622-1.083-2.4452-2.4452-3.2477-4.0867c-0.8026-1.6437-1.2044-3.5281-1.2044-5.6577
		C30.7355,577.6812,31.1373,575.7968,31.9399,574.153z"/>
	<path class="st0" d="M49.0209,525.043c-0.5415-1.9025-1.3168-3.5554-2.3248-4.9562s-2.2295-2.4929-3.6678-3.2761
		c-1.4371-0.7833-3.0525-1.176-4.8438-1.176c-1.8288,0-3.4248,0.3632-4.7882,1.092c-1.3633,0.7288-2.5019,1.7368-3.4169,3.0241
		c-0.9138,1.2896-1.5961,2.8016-2.0445,4.5361c-0.4473,1.7368-0.672,3.6122-0.672,5.6282v9.0178h37.2985v-5.1537H49.8326v-2.5746
		C49.8326,529.0002,49.5624,526.9478,49.0209,525.043z M45.688,533.7793H31.4075v-3.6961c0-1.2692,0.1215-2.4724,0.3644-3.6122
		c0.2429-1.1375,0.6346-2.1273,1.176-2.9673c0.5415-0.84,1.2317-1.5029,2.0717-1.9888c0.84-0.4836,1.8764-0.7265,3.1081-0.7265
		c1.1953,0,2.2601,0.252,3.1921,0.756c0.9342,0.504,1.7277,1.2123,2.3805,2.1273c0.6539,0.9149,1.1477,1.9979,1.4837,3.2488
		c0.336,1.251,0.504,2.6223,0.504,4.1162V533.7793z"/>
	<path class="st0" d="M32.3599,491.7845c1.755,1.5302,3.8085,2.6972,6.1606,3.5009c2.3521,0.8015,4.8154,1.2033,7.3923,1.2033
		c2.5757,0,5.0402-0.4019,7.3923-1.2033c2.3521-0.8037,4.4068-1.9707,6.1595-3.5009c1.755-1.5302,3.1558-3.435,4.2002-5.7122
		c1.0466-2.2772,1.5688-4.8722,1.5688-7.785c0-0.5222-0.0182-1.0444-0.0568-1.5665c-0.0363-0.5245-0.0931-1.0285-0.168-1.5143
		l7.9531-12.3189l-3.8074-2.4088l-5.8257,9.2403c-0.7833-1.5688-1.7822-2.9492-2.9946-4.1434
		c-1.2146-1.1942-2.5769-2.2023-4.0889-3.0241c-1.5121-0.8219-3.1444-1.4371-4.9006-1.8481
		c-1.7538-0.4109-3.5645-0.6175-5.4318-0.6175c-2.5769,0-5.0402,0.4018-7.3923,1.2055s-4.4056,1.9684-6.1606,3.4986
		c-1.755,1.5325-3.1547,3.4373-4.2002,5.7122c-1.0455,2.2794-1.5688,4.8722-1.5688,7.785s0.5233,5.5079,1.5688,7.785
		C29.2053,488.3495,30.6049,490.2543,32.3599,491.7845z M31.9399,472.6318c0.8026-1.6437,1.8855-3.006,3.2477-4.0889
		c1.3633-1.083,2.9685-1.9048,4.8166-2.4633c1.8481-0.5608,3.8176-0.84,5.9086-0.84c2.091,0,4.0594,0.2793,5.9075,0.84
		c1.8481,0.5585,3.4646,1.3804,4.8449,2.4633c1.3826,1.0829,2.4633,2.4452,3.2489,4.0889c0.7833,1.6437,1.176,3.5281,1.176,5.6555
		c0,2.1296-0.3928,4.014-1.176,5.6577c-0.7855,1.6415-1.8662,3.0037-3.2489,4.0866c-1.3804,1.083-2.9969,1.9048-4.8449,2.4656
		c-1.8481,0.5585-3.8165,0.84-5.9075,0.84c-2.091,0-4.0605-0.2815-5.9086-0.84c-1.8481-0.5608-3.4532-1.3826-4.8166-2.4656
		c-1.3622-1.0829-2.4452-2.4452-3.2477-4.0866c-0.8026-1.6437-1.2044-3.5281-1.2044-5.6577
		C30.7355,476.16,31.1373,474.2756,31.9399,472.6318z"/>
	<path class="st0" d="M64.5615,409.634l-15.905,13.1613c-0.8582-2.9878-2.2397-5.3126-4.1445-6.9745
		c-1.9037-1.6596-4.1434-2.4906-6.7202-2.4906c-1.7164,0-3.2387,0.3723-4.5634,1.1193c-1.3259,0.7469-2.427,1.7731-3.3045,3.0809
		c-0.8775,1.3077-1.5404,2.8289-1.9888,4.5634c-0.4473,1.7368-0.672,3.6121-0.672,5.6282v9.6899h37.2985v-5.1537H49.6089
		c0-0.2225,0-0.5312,0-0.924c0-0.3905,0-0.7923,0-1.2033c0-0.4109-0.0091-0.8037-0.0284-1.176
		c-0.0182-0.3723-0.0284-0.6539-0.0284-0.8401l15.0093-12.1532V409.634z M45.4644,432.2581H31.4075v-4.4794
		c0-1.2328,0.1215-2.4088,0.3644-3.5281c0.2429-1.1193,0.6164-2.1092,1.1204-2.9673c0.504-0.8605,1.176-1.5416,2.0161-2.0456
		s1.839-0.756,2.9957-0.756c1.3077,0,2.4361,0.2906,3.3885,0.8696c0.9513,0.5789,1.7357,1.3713,2.3521,2.3793
		c0.6153,1.008,1.0739,2.1931,1.3713,3.5554c0.2997,1.3645,0.4484,2.8289,0.4484,4.3977V432.2581z"/>
	<path class="st0" d="M29.0554,387.2393c0.8219,1.0466,1.8481,1.8594,3.0809,2.4361c1.2317,0.5789,2.6506,0.8695,4.2558,0.8695
		c1.419,0,2.6597-0.2702,3.7245-0.8128c1.0637-0.5403,2.0161-1.26,2.8561-2.1568c0.84-0.8945,1.587-1.9321,2.2397-3.1081
		c0.6539-1.1761,1.2793-2.3975,1.8764-3.6666c0.5233-1.1216,1.0273-2.175,1.5121-3.1649c0.4859-0.9899,1.0353-1.8571,1.6517-2.6041
		c0.6164-0.7469,1.3077-1.335,2.0717-1.7641c0.7651-0.4291,1.6891-0.6448,2.7721-0.6448c1.9434,0,3.426,0.7469,4.4522,2.2408
		c1.0285,1.4939,1.5416,3.4532,1.5416,5.8802c0,1.6801-0.2066,3.351-0.6175,5.0129c-0.4087,1.6619-0.9331,3.183-1.5665,4.5634
		l4.0866,1.0081c0.7469-1.5688,1.3077-3.2943,1.6801-5.181c0.3746-1.8844,0.5608-3.7234,0.5608-5.5147
		c0-1.8299-0.2429-3.5372-0.7288-5.1242c-0.4836-1.587-1.176-2.9696-2.0706-4.1457c-0.8968-1.1761-1.9798-2.1092-3.2489-2.7993
		s-2.7063-1.0375-4.3114-1.0375c-1.6801,0-3.1558,0.3746-4.4249,1.1216s-2.3805,1.6801-3.3329,2.7993
		c-0.9513,1.1216-1.772,2.3521-2.4633,3.6961c-0.6902,1.3441-1.335,2.6132-1.9321,3.8096
		c-0.5971,1.1942-1.1295,2.2113-1.5961,3.0514c-0.4666,0.84-0.9524,1.5121-1.4564,2.0161c-0.504,0.504-1.0444,0.8673-1.6244,1.092
		c-0.5778,0.2248-1.26,0.336-2.0433,0.336c-3.51,0-5.265-2.259-5.265-6.777c0-1.5665,0.2055-3.1172,0.6164-4.6474
		c0.4109-1.5302,0.9331-2.8924,1.5677-4.0889l-4.0878-0.9513c-0.672,1.2691-1.2135,2.7539-1.6244,4.4522
		c-0.4098,1.6982-0.6164,3.4441-0.6164,5.2354c0,1.755,0.2066,3.3601,0.6164,4.8177
		C27.6183,384.9439,28.2347,386.1949,29.0554,387.2393z"/>
	<polygon class="st0" points="31.4643,337.5707 64.5615,337.5707 64.5615,332.417 31.4643,332.417 31.4643,321.4398 
		27.263,321.4398 27.263,348.5456 31.4643,348.5456 	"/>
	<path class="st0" d="M56.806,299.3266c1.6982-0.6335,3.174-1.5688,4.4227-2.7993c1.251-1.2328,2.2318-2.7539,2.9401-4.5657
		c0.7106-1.8094,1.0648-3.9095,1.0648-6.3002c0-2.3884-0.3542-4.4885-1.0648-6.3002c-0.7084-1.8095-1.6891-3.3329-2.9401-4.5634
		c-1.2487-1.2328-2.7244-2.1659-4.4227-2.8016c-1.6982-0.6334-3.519-0.9513-5.4613-0.9513H27.263v5.1515h24.3053
		c2.8016,0,5.0788,0.7946,6.8338,2.3816c1.755,1.587,2.6313,3.9482,2.6313,7.0835c0,3.1376-0.8764,5.4988-2.6313,7.0858
		c-1.755,1.587-4.0322,2.3793-6.8338,2.3793H27.263v5.1514h24.0816C53.2869,300.2779,55.1077,299.9623,56.806,299.3266z"/>
	<polygon class="st0" points="64.5615,231.7949 27.263,218.4089 27.263,223.5626 58.4565,234.483 27.263,245.4034 27.263,250.5548 
		64.5615,237.1711 	"/>
	<polygon class="st0" points="64.5615,184.4239 32.1919,175.0701 64.5615,165.7185 64.5615,160.6215 27.263,149.9804 
		27.263,154.9661 57.7845,163.1984 27.263,172.1572 27.263,177.9829 57.7845,186.944 27.263,195.1763 27.263,200.1598 
		64.5615,189.5186 	"/>
	<polygon class="st0" points="64.5615,131.393 64.5615,125.9623 49.8326,116.2724 64.5615,106.5848 64.5615,101.1519 
		45.8004,113.5843 27.263,101.3199 27.263,106.7528 41.7126,116.2724 27.263,125.7943 27.263,131.225 45.8004,118.9605 	"/>
	<polygon class="st0" points="64.5615,71.0878 64.5615,65.9341 49.8326,65.9341 27.263,53.6697 27.263,59.1571 45.0728,68.511 
		27.263,77.8626 27.263,83.3523 49.8326,71.0878 	"/>
</g>
<g>
</g>
<g>
</g>
<g>
</g>
<g>
</g>
<g>
</g>
<g>
</g>
</svg>
