<?xml version="1.0" encoding="utf-8"?>
<!-- Generator: Adobe Illustrator 19.0.1, SVG Export Plug-In . SVG Version: 6.00 Build 0)  -->
<svg version="1.1" id="Layer_1" xmlns="http://www.w3.org/2000/svg" xmlns:xlink="http://www.w3.org/1999/xlink" x="0px" y="0px"
	 viewBox="101 501 200 600" style="enable-background:new 101 501 200 600;" xml:space="preserve">
<style type="text/css">
	.st0{fill:#F7FAE8;}
	.st1{fill:#81AABC;}
	.st2{fill:#CF4359;}
	.st3{fill:#84AD8D;}
	.st4{fill:#2F2D3B;}
	.st5{fill:#572E58;}
	.st6{fill:#CF4359;stroke:#CF4359;stroke-miterlimit:10;}
	.st7{fill:#F8FFE8;stroke:#F8FFE8;stroke-miterlimit:10;}
	.st8{fill:#84AD8D;stroke:#84AD8D;stroke-miterlimit:10;}
	.st9{fill:#2F2D3B;stroke:#2F2D3B;stroke-miterlimit:10;}
	.st10{fill:#572E58;stroke:#572E58;stroke-miterlimit:10;}
	.st11{fill:#81ABBD;stroke:#81ABBD;stroke-miterlimit:10;}
</style>
<rect x="-99" y="1001" class="st0" width="399.2" height="100"/>
<rect x="-99" y="501" class="st1" width="400" height="100"/>
<rect x="-99" y="901" class="st2" width="400" height="200"/>
<rect x="-99" y="801" class="st3" width="400" height="100"/>
<rect x="-99" y="701" class="st4" width="400" height="100"/>
<rect x="-98.5" y="601" class="st5" width="399.5" height="100"/>
<g>
	<rect x="-99" y="701" class="st2" width="24.5" height="200"/>
	<rect x="-82.34" y="701" class="st0" width="25.71" height="200"/>
	<rect x="-65.68" y="701" class="st3" width="25.55" height="200"/>
	<rect x="-49.02" y="701" class="st4" width="25.69" height="200"/>
	<rect x="-32.36" y="701" class="st5" width="25.05" height="200"/>
	<rect x="-15.7" y="701" class="st1" width="16.7" height="200"/>
</g>
<rect x="250.08" y="901" class="st1" width="51.08" height="200"/>
<g>
	<path class="st6" d="M143.4,501h-31.34c0,0,0,1.36,0,3.95c0,2.59,0,6.41-0.03,11.35c-0.01,2.47-0.05,5.22-0.13,8.2401
		c-0.07,3.03-0.19,6.33-0.36,9.91s-0.4,7.41-0.72,11.48c-0.31,4.07-0.7,8.37-1.2,12.8701c-0.5,4.5-1.16,9.2-2.02,14.11
		c-0.43,2.45-0.93,4.96-1.48,7.52s-1.16,5.18-1.83,7.87c-0.67,2.68-1.4,5.44-2.18,8.26c-0.79,2.82-1.62,5.72-2.49,8.71
		c-0.87,2.99-1.78,6.0599-2.69,9.24c-0.92,3.1799-1.83,6.46-2.74,9.86c-0.9,3.39-1.79,6.88-2.62,10.5
		c-0.84,3.62-1.63,7.39-2.36,11.33c-0.74,3.94-1.41,8.05-2.04,12.32c-0.57,4.29-1.05,8.78-1.4,13.5c-0.17,2.36-0.3,4.77-0.39,7.23
		c-0.09,2.46-0.13,4.97-0.14,7.51c-0.01,2.5499,0.05,5.15,0.16,7.7999c0.11,2.65,0.27,5.33,0.49,8.0701
		c0.22,2.74,0.52,5.53,0.87,8.35c0.36,2.82,0.78,5.68,1.27,8.56s1.03,5.79,1.64,8.7c0.6,2.92,1.26,5.84,1.97,8.77
		c0.71,2.9299,1.47,5.86,2.3,8.79s1.72,5.86,2.66,8.79c0.94,2.92,1.93,5.84,2.97,8.72s2.1,5.75,3.19,8.59
		c1.09,2.83,2.2,5.63,3.31,8.38c1.12,2.75,2.25,5.47,3.39,8.14c1.14,2.67,2.28,5.2999,3.42,7.87c1.13,2.5699,2.27,5.1,3.4,7.58
		c1.14,2.48,2.27,4.92,3.41,7.3c1.13,2.38,2.26,4.71,3.4,6.98c1.14,2.27,2.28,4.47,3.41,6.61c1.13,2.13,2.26,4.2,3.38,6.19
		c1.12,1.99,2.22,3.92,3.33,5.79s2.22,3.68,3.34,5.43c2.23,3.51,4.43,6.81,6.54,9.9s4.14,5.99,6.03,8.7
		c1.9,2.72,3.66,5.27,5.25,7.69c1.59,2.41,2.97,4.69,4.1,6.86c1.13,2.16,2,4.23,2.56,6.2c0.56,1.97,0.79,3.86,0.68,5.69
		c-0.12,1.82-0.6,3.58-1.45,5.28s-2.03,3.34-3.4,4.95c-1.41,1.62-2.98,3.21-4.67,4.78s-3.49,3.14-5.35,4.71
		c-1.87,1.57-3.79,3.15-5.74,4.75c-1.95,1.6-3.89,3.24-5.82,4.89c-1.86,1.7-3.69,3.44-5.43,5.24c-1.74,1.8-3.4,3.66-5.01,5.57
		c-1.53,1.96-2.98,3.98-4.28,6.1s-2.46,4.35-3.47,6.68c-1,2.33-1.84,4.79-2.51,7.38s-1.17,5.31-1.52,8.14s-0.58,5.72-0.73,8.66
		s-0.22,5.9-0.25,8.86c-0.01,2.98-0.01,5.93-0.01,8.85c0,69.97,0,118.95,0,118.95h31.34c0,0,0-37.5,0-93.75c0-2.68,0-5.4,0-8.16
		c0.01-2.75,0.06-5.53,0.17-8.3c0.11-2.77,0.31-5.53,0.6-8.29c0.33-2.73,0.78-5.43,1.39-8.1c0.6-2.67,1.37-5.31,2.29-7.93
		c0.97-2.61,2.09-5.21,3.4-7.78s2.82-5.1,4.59-7.58c1.77-2.48,3.79-4.9,6.04-7.29c2.25-2.39,4.7-4.75,7.31-7.12
		c1.36-1.17,2.75-2.34,4.17-3.52s2.88-2.37,4.38-3.56c1.47-1.17,2.97-2.34,4.48-3.52c1.52-1.18,3.05-2.36,4.6-3.54
		c1.51-1.19,3-2.38,4.49-3.58c1.48-1.21,2.95-2.43,4.4-3.67c2.76-2.53,5.36-5.15,7.71-7.82c2.27-2.78,4.24-5.61,5.82-8.52
		c1.58-2.91,2.74-5.85,3.41-8.75c0.66-2.91,0.84-5.66,0.57-8.1c-0.28-2.45-0.96-4.54-1.97-6.32s-2.3-3.3-3.83-4.67
		s-3.28-2.68-5.24-4.06s-4.11-2.92-6.4-4.57s-4.71-3.41-7.25-5.28c-2.53-1.88-5.17-3.88-7.92-6.04c-1.37-1.08-2.76-2.21-4.18-3.38
		c-1.42-1.18-2.86-2.4-4.31-3.68c-1.46-1.28-2.92-2.62-4.39-4.03c-1.47-1.4-2.96-2.87-4.47-4.41s-3.03-3.15-4.56-4.84
		s-3.06-3.46-4.61-5.32c-1.54-1.85-3.1-3.81-4.66-5.85s-3.13-4.17-4.71-6.38c-1.57-2.21-3.15-4.51-4.73-6.89
		c-1.58-2.37-3.15-4.81-4.76-7.32c-1.6-2.51-3.22-5.09-4.84-7.74s-3.24-5.37-4.85-8.17c-1.61-2.8-3.19-5.66-4.72-8.5601
		c-1.53-2.9-3.01-5.85-4.45-8.85s-2.83-6.06-4.17-9.16c-1.33-3.1-2.6-6.24-3.8-9.42s-2.33-6.39-3.36-9.61s-1.98-6.45-2.82-9.69
		c-0.84-3.24-1.57-6.46-2.18-9.66c-0.61-3.1899-1.12-6.36-1.52-9.51c-0.41-3.15-0.71-6.26-0.92-9.3199
		c-0.21-3.0601-0.31-6.0701-0.31-9.01c0-2.96,0.09-5.84,0.27-8.64c0.19-2.8,0.45-5.53,0.79-8.1901c0.34-2.66,0.75-5.24,1.23-7.73
		c0.47-2.49,1.01-4.9,1.62-7.2c1.22-4.64,2.57-8.95,4.02-12.99s2.96-7.81,4.51-11.32c1.54-3.51,3.09-6.81,4.63-9.97
		c1.49-3.0701,2.97-6.01,4.4-8.84s2.8-5.56,4.14-8.24c1.33-2.67,2.62-5.29,3.85-7.85c1.23-2.5599,2.4-5.08,3.5-7.5499
		c1.1-2.47,2.12-4.91,3.03-7.3s1.75-4.75,2.5-7.08s1.43-4.62,2.01-6.87c1.17-4.51,2.03-8.9,2.72-13.12
		c0.61-4.26,1.12-8.35,1.51-12.25s0.67-7.61,0.87-11.08c0.2-3.47,0.32-6.7,0.39-9.69c0.07-2.98,0.1-5.71,0.11-8.17
		c0.01-4.92,0.01-8.74,0.01-11.34S143.4,501,143.4,501z"/>
	<path class="st7" d="M174.74,501H143.4c0,0,0,1.36,0,3.95c0,2.59,0,6.41-0.01,11.34c0,2.46-0.04,5.19-0.11,8.17
		c-0.07,2.98-0.2,6.22-0.39,9.6901c-0.2,3.47-0.48,7.17-0.87,11.08c-0.39,3.9-0.9,7.99-1.51,12.25c-0.69,4.22-1.55,8.61-2.72,13.12
		c-0.59,2.26-1.26,4.55-2.01,6.87c-0.75,2.33-1.59,4.68-2.5,7.08c-0.91,2.39-1.93,4.83-3.03,7.3c-1.1,2.47-2.27,4.98-3.5,7.5499
		c-1.23,2.5601-2.52,5.1801-3.85,7.85s-2.71,5.41-4.14,8.24s-2.9,5.77-4.4,8.84c-1.54,3.16-3.08,6.46-4.63,9.97
		c-1.54,3.51-3.06,7.29-4.51,11.32c-1.45,4.04-2.8,8.35-4.02,12.99c-0.61,2.31-1.14,4.71-1.62,7.2s-0.89,5.07-1.23,7.73
		c-0.34,2.66-0.61,5.39-0.79,8.1901c-0.19,2.7999-0.28,5.6799-0.27,8.64c0,2.9399,0.11,5.95,0.31,9.02
		c0.21,3.06,0.51,6.18,0.92,9.32c0.41,3.15,0.91,6.32,1.52,9.51s1.34,6.41,2.18,9.66c0.84,3.23,1.78,6.46,2.82,9.6899
		c1.04,3.22,2.16,6.4301,3.36,9.61c1.2,3.1801,2.47,6.3201,3.8,9.42s2.73,6.16,4.17,9.16s2.92,5.95,4.45,8.85s3.11,5.75,4.72,8.56
		c1.61,2.8,3.23,5.52,4.85,8.17c1.62,2.65,3.24,5.23,4.84,7.74c1.6,2.51,3.18,4.9501,4.76,7.3201s3.15,4.6799,4.73,6.89
		c1.57,2.21,3.14,4.34,4.71,6.38s3.12,3.99,4.66,5.85c1.54,1.86,3.08,3.63,4.61,5.32s3.05,3.3,4.56,4.84c1.51,1.54,3,3,4.47,4.41
		c1.47,1.4,2.93,2.75,4.39,4.03c1.46,1.28,2.9,2.51,4.31,3.68s2.81,2.3,4.18,3.38c2.74,2.16,5.38,4.17,7.92,6.04
		c2.53,1.88,4.96,3.64,7.25,5.28c2.29,1.65,4.44,3.19,6.4,4.57s3.71,2.69,5.24,4.06s2.82,2.89,3.83,4.67
		c1.01,1.78,1.69,3.87,1.97,6.32s0.09,5.2-0.57,8.1c-0.67,2.9-1.83,5.84-3.41,8.75c-1.58,2.91-3.55,5.74-5.82,8.52
		c-2.35,2.67-4.95,5.29-7.71,7.82c-1.45,1.24-2.92,2.46-4.4,3.67c-1.48,1.21-2.98,2.4-4.49,3.58c-1.54,1.18-3.08,2.36-4.6,3.54
		c-1.52,1.18-3.01,2.35-4.48,3.52c-1.5,1.19-2.95,2.38-4.38,3.56s-2.82,2.35-4.17,3.52c-2.61,2.37-5.06,4.74-7.31,7.12
		c-2.25,2.39-4.27,4.81-6.04,7.29s-3.28,5.01-4.59,7.58s-2.43,5.17-3.4,7.78c-0.92,2.62-1.69,5.26-2.29,7.93
		c-0.6,2.67-1.06,5.37-1.39,8.1c-0.29,2.76-0.49,5.52-0.6,8.29c-0.11,2.77-0.16,5.55-0.17,8.3c0,2.76,0,5.48,0,8.16
		c0,56.2501,0,93.7501,0,93.7501h31.34c0,0,0-27.55,0-70.8501c0-4.8099,0-9.8199,0.04-14.9799c0.02-2.58,0.11-5.18,0.23-7.81
		c0.14-2.63,0.28-5.31,0.49-8.03c0.21-2.73,0.54-5.47,1-8.24s1.06-5.56,1.83-8.39s1.71-5.69,2.87-8.57
		c1.16-2.87,2.55-5.75,4.18-8.63c1.63-2.89,3.5-5.8,5.63-8.73c2.13-2.94,4.49-5.88,7.08-8.87c1.29-1.49,2.64-3,4.03-4.54
		c1.4-1.53,2.84-3.1,4.33-4.69c1.49-1.6,3.02-3.25,4.57-4.96s3.12-3.5,4.69-5.37c1.58-1.87,3.14-3.85,4.67-5.94s3.02-4.32,4.46-6.69
		c1.42-2.34,2.74-4.82,3.95-7.44c1.21-2.63,2.3-5.39,3.29-8.22c0.81-2.83,1.5-5.7,2.06-8.62s1-5.88,1.33-8.84
		c0.16-2.86,0.23-5.69,0.18-8.45c-0.05-2.76-0.2-5.46-0.51-8.08c-0.6-5.24-1.59-9.97-2.9-14.14c-1.32-4.17-2.89-7.75-4.64-10.69
		s-3.63-5.28-5.56-7.13c-1.97-1.65-3.94-2.83-5.89-3.5s-3.87-0.98-5.8-1.11s-3.88-0.21-5.9-0.39s-4.12-0.58-6.35-1.34
		s-4.6-1.94-7.05-3.32c-2.5-1.49-5.05-3.09-7.68-4.83c-1.31-0.87-2.63-1.76-3.95-2.68c-1.33-0.92-2.68-1.88-4.05-2.9
		s-2.77-2.1-4.18-3.25s-2.85-2.38-4.33-3.69s-2.99-2.72-4.54-4.24c-1.55-1.52-3.13-3.14-4.74-4.85c-1.61-1.71-3.26-3.51-4.94-5.4
		c-1.69-1.89-3.41-3.86-5.15-5.91c-1.74-2.0499-3.51-4.2-5.27-6.42s-3.52-4.54-5.29-6.94c-1.76-2.4-3.52-4.89-5.26-7.48
		c-1.74-2.59-3.44-5.26-5.09-8.02s-3.23-5.6-4.72-8.5s-2.9-5.87-4.23-8.92c-1.33-3.0499-2.56-6.1799-3.71-9.37
		c-1.1-3.1799-2.11-6.42-2.99-9.7c-0.89-3.28-1.63-6.58-2.23-9.88c-0.6-3.3-1.04-6.59-1.32-9.86c-0.28-3.27-0.4-6.5-0.39-9.66
		c0.02-3.16,0.18-6.26,0.5-9.28c0.31-3.02,0.77-5.9399,1.36-8.74c0.59-2.7999,1.31-5.49,2.13-8.0699c0.83-2.59,1.75-5.0601,2.76-7.4
		s2.1-4.54,3.23-6.61c1.2-2.04,2.41-3.99,3.64-5.86c1.23-1.86,2.47-3.64,3.7-5.32c1.31-1.65,2.6-3.22,3.87-4.74s2.54-2.97,3.79-4.36
		c2.5-2.79,4.93-5.42,7.24-7.91c2.32-2.5,4.5-4.89,6.55-7.23c2.05-2.33,3.96-4.61,5.72-6.85c1.76-2.24,3.37-4.45,4.9-6.65
		c1.48-2.22,2.9-4.43,4.22-6.65c1.32-2.21,2.54-4.4301,3.67-6.64c1.08-2.22,2.08-4.4301,2.94-6.65c1.72-4.43,3.07-8.82,4.09-13.12
		c1.02-4.31,1.76-8.51,2.32-12.57c0.42-4.12,0.7-8.12,0.86-11.98c0.16-3.86,0.22-7.56,0.25-11.04c0.01-3.5,0.01-6.75,0.01-9.75
		C174.74,509.5,174.74,501,174.74,501z"/>
	<path class="st8" d="M206.08,501h-31.34c0,0,0,8.5,0,23.49c0,3,0,6.25-0.01,9.75c-0.03,3.48-0.09,7.18-0.25,11.04
		c-0.16,3.86-0.44,7.85-0.86,11.98c-0.56,4.06-1.3,8.26-2.32,12.57c-1.02,4.3-2.37,8.69-4.09,13.12c-0.86,2.22-1.85,4.43-2.94,6.65
		c-1.13,2.21-2.34,4.42-3.67,6.64c-1.32,2.21-2.74,4.4301-4.22,6.65c-1.52,2.2-3.14,4.42-4.9,6.65c-1.76,2.24-3.67,4.52-5.72,6.85
		c-2.05,2.33-4.23,4.73-6.55,7.23s-4.74,5.12-7.24,7.91c-1.25,1.4-2.51,2.85-3.79,4.36s-2.57,3.09-3.87,4.74
		c-1.24,1.68-2.48,3.46-3.7,5.32c-1.23,1.86-2.44,3.81-3.64,5.86c-1.13,2.07-2.22,4.28-3.23,6.61c-1.01,2.34-1.93,4.81-2.76,7.4
		c-0.82,2.5701-1.54,5.26-2.13,8.0701c-0.59,2.7999-1.05,5.72-1.36,8.74c-0.31,3.02-0.48,6.12-0.5,9.28s0.11,6.39,0.39,9.66
		c0.28,3.27,0.72,6.5601,1.32,9.86c0.6,3.3,1.35,6.6,2.23,9.88c0.88,3.28,1.9,6.52,2.99,9.7001c1.15,3.2,2.38,6.3199,3.71,9.37
		c1.33,3.0499,2.74,6.02,4.23,8.92c1.49,2.9,3.07,5.74,4.72,8.5s3.35,5.44,5.09,8.02c1.74,2.58,3.49,5.08,5.26,7.48
		s3.52,4.71,5.29,6.94s3.52,4.37,5.27,6.42c1.74,2.0499,3.47,4.02,5.15,5.91c1.69,1.89,3.34,3.69,4.94,5.4
		c1.61,1.71,3.19,3.33,4.74,4.85c1.55,1.52,3.06,2.93,4.54,4.24s2.92,2.54,4.33,3.69c1.41,1.15,2.81,2.24,4.18,3.25
		c1.37,1.02,2.72,1.98,4.05,2.9c1.33,0.92,2.64,1.81,3.95,2.68c2.63,1.74,5.18,3.34,7.68,4.83c2.45,1.38,4.82,2.56,7.05,3.32
		c2.23,0.76,4.34,1.16,6.35,1.34c2.02,0.18,3.97,0.26,5.9,0.39s3.85,0.44,5.8,1.11c1.95,0.67,3.92,1.86,5.89,3.5
		c1.93,1.86,3.81,4.19,5.56,7.13s3.33,6.52,4.64,10.69c1.32,4.17,2.3,8.9,2.9,14.14c0.3,2.62,0.46,5.32,0.51,8.08
		c0.05,2.76-0.02,5.59-0.18,8.45c-0.33,2.96-0.77,5.92-1.33,8.84c-0.56,2.92-1.25,5.79-2.06,8.62c-0.99,2.83-2.08,5.59-3.29,8.22
		c-1.21,2.63-2.53,5.11-3.95,7.44c-1.43,2.37-2.93,4.59-4.46,6.69c-1.53,2.09-3.09,4.07-4.67,5.94c-1.58,1.87-3.15,3.66-4.69,5.37
		s-3.08,3.36-4.57,4.96c-1.49,1.6-2.94,3.16-4.33,4.69c-1.4,1.53-2.74,3.04-4.03,4.54c-2.59,2.99-4.95,5.94-7.08,8.87
		c-2.13,2.94-4,5.85-5.63,8.73c-1.62,2.88-3.02,5.76-4.18,8.63c-1.16,2.88-2.11,5.74-2.87,8.57c-0.77,2.83-1.37,5.62-1.83,8.39
		s-0.78,5.51-1,8.24c-0.21,2.72-0.36,5.4-0.49,8.03c-0.12,2.63-0.21,5.23-0.23,7.81c-0.04,5.16-0.04,10.1699-0.04,14.98
		c0,43.29,0,70.85,0,70.85h31.34c0,0,0-21.77,0-57.01c0-4.41,0-9.02-0.02-13.86c-0.01-2.4199-0.01-4.9-0.03-7.44
		c0.02-2.54,0.04-5.13,0.07-7.79c0.08-2.64,0.15-5.33,0.27-8.08s0.32-5.53,0.61-8.34c0.37-2.79,0.84-5.61,1.45-8.44
		c0.62-2.83,1.42-5.66,2.42-8.51c0.99-2.85,2.18-5.72,3.54-8.64c1.36-2.92,2.91-5.91,4.63-9s3.61-6.31,5.66-9.74
		c1.02-1.71,2.08-3.48,3.17-5.3c1.08-1.82,2.2-3.69,3.33-5.61c1.13-1.99,2.27-4.05,3.4-6.21c1.13-2.16,2.27-4.42,3.38-6.78
		c1.12-2.36,2.19-4.85,3.22-7.46c1.03-2.61,2-5.35,2.9-8.24s1.71-5.9,2.43-9.04c0.72-3.14,1.33-6.41,1.82-9.8
		c0.49-3.39,0.86-6.87,1.12-10.43c0.26-3.55,0.38-7.19,0.39-10.86c-0.11-3.64-0.32-7.27-0.67-10.9s-0.84-7.25-1.47-10.82
		s-1.39-7.04-2.29-10.41s-1.91-6.6-3.02-9.66c-1.11-3.07-2.31-5.94-3.58-8.6s-2.6-5.11-3.97-7.33c-1.37-2.22-2.77-4.22-4.2-6
		c-1.42-1.78-2.86-3.35-4.31-4.71s-2.87-2.49-4.27-3.42s-2.78-1.68-4.13-2.26s-2.67-1-3.96-1.3s-2.57-0.5-3.84-0.63
		c-1.26-0.13-2.52-0.18-3.79-0.22c-1.27-0.04-2.55-0.09-3.84-0.1801c-1.29-0.09-2.6-0.24-3.9-0.45c-1.3-0.2101-2.6-0.49-3.9-0.85
		c-1.3-0.37-2.6-0.84-3.93-1.45c-1.32-0.61-2.66-1.34-4-2.15c-1.37-0.88-2.73-1.79-4.1-2.74c-1.38-0.99-2.76-2.01-4.17-3.09
		c-1.4-1.08-2.8-2.18-4.2-3.33c-1.4-1.15-2.83-2.34-4.26-3.5601c-1.43-1.23-2.88-2.47-4.33-3.74c-1.45-1.27-2.92-2.5499-4.39-3.86
		c-1.47-1.3099-2.94-2.62-4.42-3.95c-1.47-1.33-2.94-2.67-4.4-4c-1.46-1.33-2.91-2.66-4.35-4.03c-1.45-1.37-2.89-2.78-4.34-4.27
		c-1.45-1.48-2.89-3.04-4.34-4.6899c-1.45-1.65-2.89-3.42-4.33-5.28s-2.86-3.82-4.25-5.91c-1.38-2.0699-2.72-4.26-3.99-6.5499
		c-1.28-2.29-2.48-4.6801-3.62-7.1901c-1.09-2.49-2.12-5.09-3.04-7.79s-1.73-5.47-2.4-8.32s-1.2-5.75-1.56-8.69
		s-0.55-5.88-0.55-8.81s0.19-5.83,0.58-8.69c0.39-2.86,0.97-5.64,1.74-8.31c0.78-2.67,1.74-5.21,2.86-7.61
		c1.2-2.37,2.5-4.59,3.93-6.62s2.98-3.89,4.6-5.57c1.63-1.68,3.31-3.21,5.02-4.63s3.45-2.75,5.21-3.98c1.76-1.23,3.53-2.42,5.3-3.58
		c1.77-1.15,3.54-2.27,5.3-3.34c1.76-1.0701,3.51-2.12,5.24-3.15c1.73-1.03,3.44-2.04,5.12-3.03c1.68-0.99,3.33-1.97,4.93-2.9299
		c1.61-0.97,3.17-1.92,4.69-2.87c3.06-1.91,5.9-3.8201,8.5-5.74c2.61-1.92,4.96-3.86,7.06-5.8201c2.09-1.96,3.93-3.96,5.54-6
		c1.61-2.04,3-4.11,4.26-6.2c1.18-2.13,2.28-4.27,3.25-6.4501c0.97-2.1799,1.82-4.39,2.57-6.63c0.74-2.24,1.39-4.5,1.91-6.78
		c1.04-4.58,1.77-9.17,2.25-13.71c0.31-4.65,0.44-9.22,0.45-13.62c0.01-4.4,0.01-8.6,0.01-12.5699
		C206.08,517.67,206.08,501,206.08,501z"/>
	<path class="st9" d="M237.42,501h-31.34c0,0,0,16.67,0,44.44c0,3.97,0,8.16-0.01,12.57c-0.02,4.4-0.15,8.97-0.45,13.62
		c-0.49,4.54-1.21,9.14-2.25,13.71c-0.52,2.29-1.16,4.54-1.91,6.78c-0.74,2.24-1.59,4.45-2.57,6.63c-0.97,2.18-2.07,4.32-3.25,6.45
		c-1.26,2.09-2.65,4.16-4.26,6.2c-1.61,2.04-3.45,4.04-5.54,6s-4.45,3.9-7.06,5.82s-5.45,3.83-8.5,5.74
		c-1.52,0.95-3.08,1.91-4.69,2.87c-1.61,0.97-3.25,1.94-4.93,2.93s-3.39,2-5.12,3.03c-1.73,1.03-3.48,2.08-5.24,3.15
		c-1.77,1.08-3.53,2.19-5.3,3.34c-1.77,1.15-3.54,2.34-5.3,3.58c-1.76,1.23-3.5,2.56-5.21,3.98c-1.71,1.42-3.39,2.9501-5.02,4.63
		c-1.63,1.6801-3.17,3.54-4.6,5.5701c-1.43,2.03-2.74,4.25-3.93,6.62c-1.12,2.4-2.08,4.9399-2.86,7.61
		c-0.77,2.67-1.36,5.45-1.74,8.3099c-0.39,2.86-0.58,5.76-0.58,8.6901c0,2.9299,0.19,5.87,0.55,8.8099
		c0.36,2.9401,0.89,5.85,1.56,8.6901c0.67,2.85,1.48,5.62,2.4,8.3199c0.92,2.7001,1.95,5.3,3.04,7.79c1.14,2.51,2.35,4.9,3.62,7.19
		c1.28,2.29,2.62,4.48,3.99,6.55c1.39,2.09,2.81,4.05,4.25,5.91c1.44,1.86,2.89,3.62,4.33,5.28c1.45,1.66,2.89,3.21,4.34,4.69
		s2.89,2.9,4.34,4.27s2.9,2.7,4.36,4.03s2.93,2.67,4.4,4c1.47,1.33,2.95,2.65,4.42,3.95s2.93,2.59,4.39,3.86
		c1.45,1.27,2.9,2.52,4.33,3.74c1.43,1.23,2.86,2.42,4.26,3.56c1.4,1.15,2.8,2.25,4.2,3.33c1.4,1.08,2.78,2.09,4.17,3.09
		c1.36,0.95,2.73,1.86,4.1,2.74c1.34,0.81,2.68,1.54,4,2.15s2.63,1.08,3.93,1.45s2.59,0.64,3.9,0.85s2.61,0.36,3.9,0.45
		c1.29,0.09,2.57,0.14,3.84,0.18s2.53,0.09,3.79,0.22s2.54,0.33,3.84,0.63c1.3,0.3,2.61,0.73,3.96,1.2999
		c1.35,0.57,2.72,1.3201,4.13,2.26c1.41,0.9401,2.82,2.0601,4.27,3.42c1.45,1.36,2.89,2.93,4.31,4.71c1.42,1.78,2.82,3.78,4.2,6
		s2.7,4.67,3.97,7.33c1.26,2.66,2.46,5.53,3.58,8.6s2.12,6.3,3.02,9.66c0.89,3.36,1.65,6.84,2.29,10.41
		c0.63,3.57,1.13,7.19,1.47,10.82c0.35,3.63,0.56,7.26,0.67,10.9c-0.02,3.67-0.13,7.3-0.39,10.86c-0.26,3.55-0.63,7.03-1.12,10.43
		c-0.49,3.39-1.1,6.66-1.82,9.8s-1.53,6.15-2.43,9.04c-0.9,2.89-1.87,5.63-2.9,8.24s-2.11,5.1-3.22,7.46
		c-1.12,2.36-2.25,4.62-3.38,6.78c-1.13,2.16-2.27,4.22-3.4,6.21c-1.13,1.92-2.25,3.79-3.33,5.61s-2.14,3.59-3.17,5.3
		c-2.05,3.43-3.94,6.65-5.66,9.74c-1.72,3.09-3.26,6.08-4.63,9c-1.36,2.92-2.55,5.8-3.54,8.64c-0.99,2.85-1.8,5.68-2.42,8.51
		c-0.62,2.83-1.08,5.64-1.45,8.44c-0.28,2.81-0.49,5.59-0.61,8.34c-0.12,2.74-0.19,5.44-0.27,8.08c-0.03,2.66-0.05,5.25-0.07,7.79
		c0.02,2.55,0.02,5.03,0.03,7.4399c0.02,4.8401,0.02,9.4501,0.02,13.8601c0,35.24,0,57.01,0,57.01h31.34c0,0,0-16.67,0-44.4401
		c0-3.97,0-8.16-0.02-12.58c-0.07-4.4401-0.15-9.1101-0.26-13.99c-0.05-2.4401-0.07-4.9301-0.06-7.48c0.01-2.54,0.04-5.14,0.1-7.8
		c0.06-2.63,0.17-5.31,0.36-8.02c0.19-2.71,0.47-5.45,0.82-8.23c0.41-2.79,0.9-5.62,1.48-8.49c0.65-2.89,1.39-5.84,2.24-8.89
		c0.85-3.05,1.82-6.22,2.9-9.51s2.25-6.75,3.5-10.35c1.26-3.69,2.58-7.57,3.95-11.7c1.37-4.13,2.76-8.51,4.11-13.2
		c0.68-2.35,1.33-4.78,1.96-7.28s1.23-5.09,1.79-7.78s1.07-5.47,1.53-8.33c0.46-2.86,0.88-5.81,1.23-8.84
		c0.35-3.04,0.62-6.17,0.8-9.39c0.18-3.22,0.29-6.53,0.31-9.91c0.02-3.39-0.05-6.85-0.25-10.39s-0.53-7.15-0.97-10.81
		s-1-7.35-1.7-11.07c-0.7-3.72-1.54-7.45-2.5-11.17c-0.97-3.74-2.07-7.44-3.31-11.11c-1.24-3.66-2.62-7.28-4.11-10.83
		c-1.5-3.55-3.12-6.94-4.87-10.2s-3.61-6.37-5.59-9.3c-1.98-2.94-4.05-5.69-6.21-8.22c-2.16-2.54-4.38-4.85-6.63-6.91
		c-2.23-2.04-4.47-3.81-6.65-5.28c-2.18-1.47-4.29-2.65-6.32-3.55c-2.02-0.9-3.96-1.5599-5.79-2.01c-1.84-0.45-3.58-0.73-5.25-0.88
		c-1.67-0.15-3.28-0.23-4.85-0.28c-1.57-0.06-3.13-0.15-4.69-0.32c-1.56-0.18-3.14-0.5-4.76-1.02c-1.62-0.52-3.3-1.26-5.04-2.27
		c-1.74-1-3.58-2.31-5.45-3.78c-1.93-1.5601-3.88-3.1901-5.82-4.86c-1.94-1.67-3.82-3.3-5.63-4.9c-1.82-1.6-3.58-3.19-5.28-4.73
		c-1.7-1.55-3.34-3.0701-4.94-4.59s-3.14-3.04-4.64-4.56c-1.49-1.51-2.93-3.02-4.32-4.54c-1.39-1.51-2.73-3.03-4.02-4.5499
		c-1.29-1.52-2.53-3.04-3.71-4.5701c-1.18-1.53-2.32-3.0599-3.41-4.59s-2.13-3.07-3.11-4.66c-0.96-1.5599-1.87-3.1799-2.72-4.85
		c-0.84-1.66-1.59-3.4-2.27-5.21c-0.65-1.8-1.22-3.66-1.69-5.6s-0.81-3.92-1.02-5.95s-0.28-4.09-0.19-6.15
		c0.09-2.0699,0.35-4.12,0.81-6.12c0.45-2,1.09-3.9399,1.92-5.79s1.85-3.56,3.05-5.12s2.58-2.97,4.1-4.25s3.17-2.47,4.94-3.54
		c1.77-1.08,3.65-2.0701,5.57-3.04c1.92-0.96,3.89-1.9,5.9-2.8s4.06-1.77,6.14-2.62c2.09-0.86,4.21-1.7,6.35-2.51
		c2.13-0.82,4.28-1.61,6.42-2.39c2.21-0.77,4.4-1.53,6.58-2.26c2.18-0.74,4.34-1.45,6.48-2.15c2.13-0.7001,4.23-1.38,6.29-2.05
		c2.06-0.67,4.07-1.33,6.03-1.99c1.9-0.67,3.75-1.34,5.53-2.01c1.78-0.67,3.48-1.35,5.09-2.0699c3.22-1.4401,6.1-3.05,8.65-4.8
		s4.76-3.65,6.75-5.63c1.81-2.0699,3.42-4.21,4.78-6.4299c1.36-2.23,2.49-4.54,3.4-6.9301s1.66-4.84,2.29-7.33s1.18-5,1.64-7.52
		c0.46-2.52,0.85-5.04,1.15-7.5499c0.31-2.52,0.54-5.03,0.68-7.55c0.29-5.04,0.42-9.98,0.45-14.77c0-4.81,0-9.43,0-13.83
		C237.42,522.77,237.42,501,237.42,501z"/>
	<path class="st10" d="M268.76,501h-31.34c0,0,0,21.77,0,57.01c0,4.41,0,9.02,0,13.83c-0.03,4.8-0.16,9.73-0.45,14.77
		c-0.14,2.52-0.37,5.04-0.68,7.55c-0.31,2.52-0.69,5.04-1.15,7.55s-1.01,5.03-1.64,7.52s-1.38,4.9399-2.29,7.33s-2.04,4.7-3.4,6.93
		c-1.36,2.23-2.98,4.36-4.78,6.43c-1.99,1.98-4.2,3.88-6.75,5.63s-5.43,3.36-8.65,4.8c-1.61,0.72-3.31,1.4-5.09,2.07
		s-3.63,1.34-5.53,2.01c-1.97,0.66-3.98,1.32-6.03,1.99c-2.06,0.67-4.15,1.36-6.29,2.05c-2.14,0.7-4.3,1.42-6.48,2.15
		s-4.38,1.49-6.58,2.26c-2.14,0.78-4.28,1.5701-6.42,2.39c-2.13,0.8201-4.25,1.66-6.35,2.51c-2.08,0.85-4.13,1.72-6.14,2.62
		c-2.01,0.9-3.98,1.83-5.9,2.8c-1.92,0.97-3.8,1.96-5.57,3.04s-3.42,2.26-4.94,3.54c-1.52,1.28-2.9,2.6901-4.1,4.25
		c-1.2,1.5601-2.22,3.28-3.05,5.12c-0.83,1.84-1.47,3.78-1.92,5.79c-0.45,2-0.72,4.05-0.81,6.12s-0.02,4.12,0.19,6.15
		c0.21,2.03,0.55,4.02,1.02,5.95c0.47,1.9301,1.04,3.8,1.69,5.6c0.68,1.81,1.44,3.54,2.27,5.21c0.84,1.6799,1.75,3.2999,2.72,4.85
		c0.98,1.59,2.02,3.13,3.11,4.66c1.09,1.53,2.23,3.0599,3.41,4.59c1.18,1.53,2.42,3.05,3.71,4.57c1.29,1.52,2.63,3.03,4.02,4.55
		c1.39,1.51,2.83,3.02,4.32,4.54c1.49,1.51,3.04,3.03,4.64,4.5599c1.6,1.52,3.24,3.05,4.94,4.59c1.7,1.55,3.46,3.13,5.28,4.73
		c1.82,1.6,3.69,3.23,5.63,4.9s3.89,3.3,5.82,4.86c1.88,1.47,3.71,2.77,5.45,3.78c1.74,1,3.42,1.75,5.04,2.27s3.2,0.84,4.76,1.02
		c1.56,0.1799,3.11,0.26,4.69,0.3199c1.57,0.0601,3.18,0.13,4.85,0.28s3.42,0.43,5.25,0.88c1.84,0.45,3.77,1.11,5.79,2.01
		c2.03,0.9,4.14,2.08,6.32,3.55s4.41,3.24,6.65,5.28c2.25,2.0601,4.48,4.37,6.63,6.91c2.15,2.53,4.23,5.28,6.21,8.22
		c1.98,2.9401,3.84,6.05,5.59,9.3s3.37,6.64,4.87,10.2c1.5,3.55,2.87,7.17,4.11,10.83c1.24,3.66,2.35,7.37,3.31,11.11
		c0.96,3.72,1.8,7.46,2.5,11.17c0.7,3.72,1.26,7.41,1.7,11.07c0.44,3.66,0.76,7.27,0.97,10.81c0.2,3.54,0.28,7,0.25,10.39
		c-0.02,3.38-0.13,6.69-0.31,9.91s-0.45,6.35-0.8,9.39c-0.35,3.03-0.76,5.98-1.23,8.84c-0.46,2.86-0.97,5.65-1.53,8.33
		c-0.56,2.69-1.16,5.28-1.79,7.78s-1.28,4.93-1.96,7.28c-1.35,4.69-2.75,9.07-4.11,13.2c-1.37,4.13-2.69,8.01-3.95,11.7
		c-1.25,3.61-2.42,7.06-3.5,10.35c-1.07,3.29-2.04,6.45-2.9,9.51c-0.85,3.05-1.59,6.01-2.24,8.89c-0.58,2.88-1.07,5.71-1.48,8.49
		c-0.35,2.78-0.63,5.52-0.82,8.23c-0.19,2.71-0.3,5.39-0.36,8.02c-0.06,2.66-0.09,5.26-0.1,7.8c-0.01,2.54,0.01,5.03,0.06,7.47
		c0.1,4.88,0.19,9.55,0.26,13.99c0.02,4.4199,0.02,8.61,0.02,12.5801c0,27.78,0,44.4399,0,44.4399h31.34c0,0,0-16.6699,0-44.4399
		c0-3.97,0-8.16-0.03-12.5901c-0.02-4.4199-0.04-9.0801-0.04-13.98c0-2.45,0.04-4.97,0.1-7.54c0.06-2.58,0.15-5.22,0.25-7.93
		c0.11-2.72,0.26-5.49,0.45-8.33s0.44-5.76,0.75-8.77c0.3-3.01,0.66-6.11,1.06-9.3s0.87-6.5,1.38-9.94
		c0.51-3.43,1.07-6.98,1.67-10.68s1.23-7.57,1.88-11.55c0.67-4.08,1.33-8.32,1.95-12.84c0.62-4.53,1.17-9.36,1.67-14.47
		c0.24-2.56,0.45-5.22,0.62-7.98c0.17-2.76,0.29-5.61,0.37-8.56s0.12-5.99,0.11-9.12c-0.02-3.13-0.11-6.38-0.27-9.74
		c-0.17-3.36-0.42-6.83-0.75-10.38c-0.33-3.56-0.74-7.19-1.25-10.91c-0.5-3.72-1.13-7.52-1.88-11.4s-1.62-7.82-2.59-11.81
		s-2.09-7.98-3.35-11.98s-2.64-8-4.16-11.96c-1.51-3.95-3.18-7.88-4.98-11.74c-1.8-3.86-3.74-7.63-5.82-11.29
		c-2.08-3.65-4.28-7.1799-6.62-10.53c-1.17-1.68-2.36-3.31-3.58-4.89s-2.46-3.12-3.73-4.6c-2.55-2.97-5.16-5.72-7.82-8.24
		c-2.67-2.52-5.38-4.84-8.11-6.9399c-2.73-2.1-5.44-3.97-8.11-5.62c-2.68-1.65-5.3-3.08-7.84-4.27s-4.95-2.16-7.22-2.92
		c-2.27-0.77-4.41-1.38-6.42-1.9c-2.02-0.52-3.94-1.01-5.79-1.52c-1.85-0.51-3.65-1.09-5.44-1.77s-3.57-1.52-5.34-2.54
		c-1.77-1.02-3.55-2.24-5.31-3.59c-1.79-1.43-3.54-2.95-5.24-4.54c-1.71-1.59-3.35-3.22-4.93-4.88c-1.58-1.66-3.09-3.34-4.5-5.03
		c-1.42-1.68-2.75-3.37-4-5.06c-1.24-1.69-2.39-3.36-3.43-5.01s-1.99-3.28-2.83-4.89c-0.85-1.61-1.59-3.19-2.22-4.74
		s-1.16-3.08-1.57-4.57c-0.82-2.98-1.14-5.81-0.86-8.45s1.17-5.06,2.69-7.23c1.52-2.17,3.65-4.09,6.16-5.86
		c1.4-0.86,2.89-1.6801,4.48-2.49c1.59-0.8101,3.27-1.59,5.07-2.34c1.8-0.76,3.7-1.49,5.71-2.2c2.01-0.71,4.12-1.4,6.32-2.05
		c2.2-0.66,4.5-1.28,6.85-1.86s4.77-1.14,7.22-1.64c2.45-0.51,4.93-0.97,7.39-1.39c2.47-0.42,4.91-0.8,7.32-1.15
		c2.45-0.3101,4.86-0.62,7.19-0.97c2.33-0.35,4.58-0.73,6.78-1.14c2.2-0.4,4.33-0.83,6.37-1.31c2.04-0.47,4.01-0.99,5.89-1.55
		s3.68-1.16,5.39-1.82c1.71-0.65,3.33-1.36,4.86-2.11c3.06-1.5,5.79-3.16,8.24-4.94c2.44-1.78,4.6-3.69,6.47-5.71
		c1.87-2.02,3.47-4.16,4.91-6.35c1.3-2.27,2.45-4.59,3.39-6.99s1.69-4.9,2.31-7.43c0.53-2.6,0.97-5.21,1.32-7.85s0.63-5.3099,0.83-8
		c0.2-2.6899,0.35-5.39,0.44-8.09c0.09-2.7,0.14-5.38,0.15-8.05c0.01-2.67,0.01-5.31,0.01-7.9C268.76,535.01,268.76,501,268.76,501z
		"/>
	<path class="st11" d="M300.1,501h-31.34c0,0,0,34.01,0,85.84c0,2.59,0,5.23-0.01,7.9s-0.06,5.36-0.15,8.05
		c-0.09,2.7-0.23,5.4-0.44,8.09c-0.2,2.6899-0.48,5.36-0.83,8c-0.35,2.64-0.79,5.26-1.32,7.85c-0.62,2.54-1.37,5.03-2.31,7.43
		s-2.1,4.72-3.39,6.99c-1.44,2.2-3.04,4.33-4.91,6.35s-4.03,3.9299-6.47,5.71s-5.17,3.44-8.24,4.94c-1.53,0.75-3.15,1.45-4.86,2.11
		c-1.71,0.65-3.51,1.26-5.39,1.82s-3.84,1.07-5.89,1.55c-2.04,0.47-4.17,0.9-6.37,1.31c-2.2,0.41-4.45,0.79-6.78,1.14
		s-4.73,0.66-7.19,0.97c-2.41,0.35-4.86,0.73-7.32,1.15c-2.47,0.42-4.94,0.88-7.39,1.39s-4.86,1.06-7.22,1.64
		c-2.36,0.59-4.65,1.21-6.85,1.86c-2.2,0.66-4.31,1.34-6.32,2.05s-3.92,1.44-5.71,2.2c-1.8,0.76-3.48,1.54-5.07,2.34
		c-1.59,0.8101-3.08,1.63-4.48,2.49c-2.52,1.76-4.64,3.6901-6.16,5.86c-1.52,2.17-2.41,4.59-2.69,7.23s0.04,5.47,0.86,8.45
		c0.41,1.49,0.94,3.02,1.57,4.57s1.37,3.13,2.22,4.74s1.79,3.24,2.83,4.89s2.19,3.33,3.43,5.01c1.24,1.69,2.58,3.37,4,5.06
		c1.42,1.68,2.92,3.37,4.5,5.03c1.58,1.66,3.23,3.29,4.93,4.88c1.71,1.59,3.45,3.11,5.24,4.54c1.76,1.35,3.53,2.57,5.31,3.59
		c1.78,1.02,3.55,1.86,5.34,2.54s3.59,1.26,5.44,1.77c1.85,0.51,3.77,1,5.79,1.52c2.02,0.52,4.15,1.13,6.42,1.9
		c2.27,0.77,4.68,1.73,7.22,2.92s5.16,2.62,7.84,4.27c2.68,1.65,5.39,3.52,8.11,5.62c2.73,2.1,5.44,4.41,8.11,6.9401
		c2.67,2.52,5.28,5.27,7.82,8.24c1.27,1.48,2.52,3.02,3.73,4.6c1.22,1.58,2.41,3.21,3.58,4.89c2.33,3.36,4.54,6.88,6.62,10.53
		c2.08,3.66,4.02,7.4299,5.82,11.29c1.8,3.86,3.47,7.78,4.98,11.74c1.51,3.96,2.9,7.96,4.16,11.96s2.37,7.99,3.35,11.98
		c0.97,3.99,1.84,7.93,2.59,11.81s1.38,7.69,1.88,11.4s0.91,7.35,1.25,10.91c0.33,3.56,0.58,7.02,0.75,10.38s0.25,6.6,0.27,9.74
		c0.01,3.12-0.02,6.16-0.11,9.12c-0.08,2.95-0.21,5.81-0.37,8.56c-0.17,2.76-0.37,5.42-0.62,7.98c-0.49,5.11-1.05,9.94-1.67,14.47
		c-0.62,4.53-1.29,8.76-1.95,12.84c-0.65,3.98-1.28,7.85-1.88,11.55s-1.16,7.25-1.67,10.68s-0.97,6.74-1.38,9.94
		s-0.76,6.29-1.06,9.3s-0.55,5.93-0.75,8.77c-0.19,2.84-0.34,5.61-0.45,8.33s-0.19,5.36-0.25,7.93c-0.06,2.5701-0.1,5.0901-0.1,7.54
		c0,4.8999,0.01,9.5599,0.04,13.98c0.02,4.4199,0.03,8.6199,0.03,12.59c0,27.78,0,44.4401,0,44.4401h31.34c0,0,0-16.67,0-44.4401
		c0-3.97,0-8.16,0-12.5699c0.02-4.42,0.06-9.0901,0.11-14.01c0.05-2.48,0.09-5.04,0.13-7.6901c0.04-2.66,0.09-5.43,0.13-8.32
		s0.08-5.92,0.13-9.08c0.05-3.17,0.11-6.5,0.16-10c0.06-3.49,0.13-7.15,0.19-11.02s0.12-7.96,0.16-12.29
		c0.04-4.33,0.05-8.96,0.04-13.86c0-2.45-0.01-4.97-0.03-7.55s-0.05-5.24-0.11-7.97c-0.06-2.79-0.15-5.64-0.26-8.59
		c-0.11-2.95-0.25-5.98-0.42-9.09c-0.17-3.11-0.38-6.32-0.65-9.64s-0.6-6.76-0.97-10.28c-0.41-3.53-0.85-7.12-1.35-10.79
		s-1.08-7.44-1.75-11.31s-1.41-7.79-2.23-11.76c-0.82-3.97-1.72-7.98-2.72-12.04c-1-4.05-2.11-8.14-3.33-12.23
		c-1.22-4.1-2.55-8.19-3.97-12.27c-1.42-4.07-2.97-8.12-4.63-12.14s-3.42-7.97-5.3-11.86c-1.88-3.89-3.87-7.69-5.94-11.37
		c-2.08-3.69-4.26-7.26-6.54-10.69c-2.28-3.44-4.64-6.72-7.06-9.82c-2.42-3.1-4.92-6.04-7.48-8.79c-2.57-2.76-5.17-5.33-7.79-7.73
		c-2.62-2.4-5.25-4.65-7.88-6.75s-5.22-4.05-7.76-5.86s-5.01-3.49-7.41-5.03c-2.4-1.55-4.72-2.97-6.92-4.28
		c-2.21-1.31-4.31-2.52-6.32-3.67c-2.01-1.12-3.91-2.1899-5.69-3.22s-3.44-2.01-4.99-2.96c-1.55-0.9501-2.99-1.9-4.32-2.86
		c-1.33-0.96-2.56-1.9301-3.68-2.9301c-2.23-2.01-4.04-4.11-5.36-6.28s-2.16-4.37-2.47-6.53c-0.32-2.16-0.11-4.24,0.61-6.21
		c0.72-1.97,1.97-3.82,3.74-5.55s4.06-3.32,6.77-4.8c1.49-0.7,3.09-1.37,4.78-1.99s3.48-1.2,5.36-1.71
		c1.91-0.52,3.93-0.96,6.03-1.33s4.27-0.67,6.5-0.94c2.31-0.21,4.65-0.39,7-0.55c2.35-0.17,4.7-0.33,7.06-0.48
		c2.42-0.1,4.83-0.2001,7.19-0.33c2.36-0.13,4.68-0.29,6.94-0.47c2.26-0.1799,4.47-0.4,6.61-0.65c2.14-0.25,4.21-0.52,6.22-0.81
		s3.96-0.6,5.84-0.94s3.7-0.68,5.45-1.05s3.43-0.77,5.04-1.19c1.61-0.42,3.16-0.87,4.65-1.35c2.91-1,5.61-2.11,8.05-3.39
		c2.45-1.28,4.63-2.73,6.54-4.37c1.92-1.64,3.59-3.46,5.09-5.42c1.43-2.02,2.69-4.16,3.74-6.45c1.04-2.29,1.89-4.74,2.54-7.31
		s1.14-5.28,1.49-8.06c0.35-2.79,0.58-5.64,0.74-8.53c0.12-2.9299,0.21-5.86,0.26-8.7999c0.05-2.9401,0.06-5.88,0.06-8.79
		c0-2.92,0-5.79,0-8.63C300.1,545.98,300.1,501,300.1,501z"/>
</g>
</svg>
