<?xml version="1.0" encoding="utf-8"?>
<!-- Generator: Adobe Illustrator 19.0.1, SVG Export Plug-In . SVG Version: 6.00 Build 0)  -->
<svg version="1.1" id="Layer_1" xmlns="http://www.w3.org/2000/svg" xmlns:xlink="http://www.w3.org/1999/xlink" x="0px" y="0px"
	 viewBox="-120 -2.7 600 600" style="enable-background:new -120 -2.7 600 600;" xml:space="preserve">
<style type="text/css">
	.st0{fill:#84AD8D;}
</style>
<g id="Layer_1_1_">
	<g>
		<path class="st0" d="M183.8,556.7c-0.4-0.6-0.9-1-1.5-1.4c-0.6-0.3-1.3-0.5-2-0.5c-1.1,0-2.1,0.4-2.8,1.1
			c-0.7,0.8-1.2,1.8-1.4,3.1c-0.3-1-0.9-1.9-1.5-2.6c-0.7-0.7-1.5-1-2.5-1c-0.6,0-1.2,0.1-1.7,0.4c-0.5,0.3-1,0.7-1.3,1.1
			s-0.7,1.1-0.9,1.8s-0.3,1.5-0.3,2.3v5.4h17.3v-4.9c0-1-0.1-1.9-0.4-2.7C184.6,558,184.2,557.3,183.8,556.7z M175.3,564.2h-5.5
			v-2.9c0-1,0.2-1.9,0.6-2.5c0.4-0.6,1.1-1,1.9-1c0.5,0,0.9,0.1,1.2,0.3c0.4,0.2,0.7,0.5,0.9,0.9c0.3,0.4,0.5,0.8,0.6,1.3
			c0.1,0.5,0.2,1.1,0.2,1.6V564.2z M183.3,564.2h-6.1v-2.4c0-0.6,0.1-1.2,0.2-1.8c0.1-0.6,0.3-1,0.6-1.5c0.2-0.4,0.6-0.7,1-1
			c0.4-0.2,0.8-0.4,1.4-0.4c1,0,1.8,0.4,2.3,1.2s0.8,1.8,0.8,3.1V564.2z"/>
		<path class="st0" d="M184.7,531.8l-1.8,0.4c0.2,0.6,0.4,1.2,0.5,1.9c0.1,0.7,0.2,1.3,0.2,2c0,2.2-0.6,3.8-1.8,5.1
			c-1.2,1.2-2.9,1.8-5.2,1.8c-2.2,0-4-0.6-5.2-1.8c-1.2-1.2-1.8-2.9-1.8-5.1c0-0.7,0.1-1.3,0.2-2c0.1-0.7,0.3-1.3,0.5-1.9l-1.8-0.4
			c-0.2,0.6-0.4,1.3-0.6,2.1c-0.1,0.8-0.2,1.7-0.2,2.4c0,1.4,0.2,2.7,0.7,3.8c0.5,1.1,1.1,2.1,1.9,2.8c0.8,0.8,1.7,1.3,2.8,1.8
			c1.1,0.4,2.3,0.6,3.6,0.6c1.3,0,2.5-0.2,3.6-0.6c1.1-0.4,2-1,2.8-1.8c0.8-0.8,1.4-1.7,1.9-2.8c0.4-1.1,0.7-2.4,0.7-3.8
			c0-0.8-0.1-1.6-0.2-2.4C185.1,533.1,184.9,532.4,184.7,531.8z"/>
		<path class="st0" d="M167.9,521.3h17.3v-4.8c0-1.5-0.2-2.8-0.6-4c-0.4-1.2-1-2.2-1.8-3.1c-0.8-0.9-1.7-1.5-2.7-2
			c-1.1-0.5-2.2-0.7-3.5-0.7s-2.4,0.2-3.5,0.7c-1.1,0.5-2,1.1-2.7,2c-0.8,0.9-1.4,1.9-1.8,3.1c-0.4,1.2-0.6,2.6-0.6,4V521.3z
			 M169.8,516.5c0-1,0.2-2,0.5-2.9c0.3-0.9,0.7-1.7,1.3-2.4s1.3-1.2,2.1-1.6s1.8-0.6,2.8-0.6c1.1,0,2,0.2,2.9,0.6
			c0.8,0.4,1.5,0.9,2.1,1.6c0.6,0.7,1,1.5,1.3,2.4c0.3,0.9,0.5,1.9,0.5,2.9v2.4h-13.4V516.5z"/>
		<polygon class="st0" points="167.9,496.3 185.2,496.3 185.2,486.6 183.2,486.6 183.2,493.9 177.3,493.9 177.3,487 175.3,487 
			175.3,493.9 169.8,493.9 169.8,486.7 167.9,486.7 		"/>
		<polygon class="st0" points="167.9,466.1 167.9,475.8 185.2,475.8 185.2,473.5 177.7,473.5 177.7,466.4 175.7,466.4 175.7,473.5 
			169.8,473.5 169.8,466.1 		"/>
		<path class="st0" d="M184.5,442.2h-7v2.2h5.6c0.1,0.4,0.2,0.9,0.3,1.4c0.1,0.6,0.1,1.1,0.1,1.7c0,2.3-0.6,4.1-1.8,5.2
			c-1.2,1.2-2.9,1.7-5.1,1.7c-2.3,0-4.1-0.6-5.3-1.8c-1.3-1.2-1.9-2.9-1.9-5.1c0-0.8,0.1-1.6,0.3-2.4c0.2-0.8,0.4-1.6,0.7-2.3
			l-1.9-0.4c-0.3,0.7-0.6,1.5-0.8,2.4c-0.2,0.9-0.2,1.8-0.2,2.8c0,1.5,0.2,2.7,0.7,3.9c0.5,1.1,1.1,2.1,1.9,2.9
			c0.8,0.8,1.8,1.4,2.9,1.8c1.1,0.4,2.4,0.6,3.7,0.6c1.3,0,2.5-0.2,3.6-0.6c1.1-0.4,2-1,2.8-1.8c0.8-0.8,1.4-1.7,1.8-2.9
			c0.4-1.1,0.6-2.4,0.6-3.8c0-1-0.1-2-0.3-3.1C185,443.7,184.8,442.8,184.5,442.2z"/>
		<polygon class="st0" points="185.2,419.8 185.2,417.4 167.9,417.4 167.9,419.8 175.4,419.8 175.4,428.6 167.9,428.6 167.9,431 
			185.2,431 185.2,428.6 177.4,428.6 177.4,419.8 		"/>
		<rect x="167.9" y="403.5" class="st0" width="17.3" height="2.4"/>
		<path class="st0" d="M185.3,390.1c-0.6-0.2-1.3-0.4-2-0.5s-1.4-0.1-2.1-0.1h-13.3v2.4h13.7c1.2,0,2.3,0.2,3.3,0.5c1,0.4,2,1,3,1.9
			l1.3-1.7c-0.7-0.7-1.4-1.2-2-1.6C186.6,390.6,185.9,390.3,185.3,390.1z"/>
		<polygon class="st0" points="185.2,365.2 176.4,373.1 167.9,365.7 167.9,368.6 176.2,375.8 167.9,375.8 167.9,378.2 185.2,378.2 
			185.2,375.8 176.6,375.8 185.2,368.2 		"/>
		<polygon class="st0" points="185.2,346.1 183.2,346.1 183.2,353.4 167.9,353.4 167.9,355.7 185.2,355.7 		"/>
		<polygon class="st0" points="185.2,318 167.9,319.3 167.9,321.4 180.1,327.3 167.9,333.2 167.9,335.4 185.2,336.6 185.2,334.4 
			171.7,333.5 182,328.5 182,326.1 171.7,321.1 185.2,320.3 		"/>
		<polygon class="st0" points="185.2,292.8 167.9,292.8 167.9,295.1 181.4,295.1 167.9,304.7 167.9,307 185.2,307 185.2,304.7 
			171.6,304.7 185.2,295.1 		"/>
		<path class="st0" d="M170.2,280.1c0.8,0.7,1.8,1.2,2.9,1.6c1.1,0.4,2.2,0.6,3.4,0.6c1.2,0,2.3-0.2,3.4-0.6c1.1-0.4,2-0.9,2.9-1.6
			c0.8-0.7,1.5-1.6,1.9-2.6c0.5-1.1,0.7-2.3,0.7-3.6c0-1.3-0.2-2.6-0.7-3.6c-0.5-1.1-1.1-1.9-1.9-2.6c-0.8-0.7-1.8-1.2-2.9-1.6
			c-1.1-0.4-2.2-0.6-3.4-0.6c-1.2,0-2.3,0.2-3.4,0.6c-1.1,0.4-2,0.9-2.9,1.6c-0.8,0.7-1.5,1.6-1.9,2.6c-0.5,1.1-0.7,2.3-0.7,3.6
			c0,1.3,0.2,2.6,0.7,3.6C168.8,278.5,169.4,279.4,170.2,280.1z M170,271.2c0.4-0.8,0.9-1.4,1.5-1.9c0.6-0.5,1.4-0.9,2.2-1.1
			c0.9-0.3,1.8-0.4,2.7-0.4c1,0,1.9,0.1,2.7,0.4c0.9,0.3,1.6,0.6,2.2,1.1c0.6,0.5,1.1,1.1,1.5,1.9c0.4,0.8,0.5,1.6,0.5,2.6
			c0,1-0.2,1.9-0.5,2.6c-0.4,0.8-0.9,1.4-1.5,1.9c-0.6,0.5-1.4,0.9-2.2,1.1c-0.9,0.3-1.8,0.4-2.7,0.4c-1,0-1.9-0.1-2.7-0.4
			c-0.9-0.3-1.6-0.6-2.2-1.1c-0.6-0.5-1.1-1.1-1.5-1.9c-0.4-0.8-0.6-1.6-0.6-2.6C169.5,272.8,169.7,272,170,271.2z"/>
		<path class="st0" d="M177.9,248.5c-0.3-0.9-0.6-1.6-1.1-2.3c-0.5-0.6-1-1.2-1.7-1.5c-0.7-0.4-1.4-0.5-2.2-0.5
			c-0.8,0-1.6,0.2-2.2,0.5c-0.6,0.3-1.2,0.8-1.6,1.4c-0.4,0.6-0.7,1.3-0.9,2.1c-0.2,0.8-0.3,1.7-0.3,2.6v4.2h17.3v-2.4h-6.8v-1.2
			C178.3,250.3,178.2,249.3,177.9,248.5z M176.4,252.5h-6.6v-1.7c0-0.6,0.1-1.1,0.2-1.7c0.1-0.5,0.3-1,0.5-1.4s0.6-0.7,1-0.9
			c0.4-0.2,0.9-0.3,1.4-0.3c0.6,0,1,0.1,1.5,0.4c0.4,0.2,0.8,0.6,1.1,1c0.3,0.4,0.5,0.9,0.7,1.5c0.2,0.6,0.2,1.2,0.2,1.9V252.5z"/>
		<path class="st0" d="M170.2,233c0.8,0.7,1.8,1.2,2.9,1.6c1.1,0.4,2.2,0.6,3.4,0.6c1.2,0,2.3-0.2,3.4-0.6c1.1-0.4,2-0.9,2.9-1.6
			c0.8-0.7,1.5-1.6,1.9-2.6c0.5-1.1,0.7-2.3,0.7-3.6c0-0.2,0-0.5,0-0.7c0-0.2,0-0.5-0.1-0.7l3.7-5.7l-1.8-1.1l-2.7,4.3
			c-0.4-0.7-0.8-1.4-1.4-1.9c-0.6-0.6-1.2-1-1.9-1.4c-0.7-0.4-1.5-0.7-2.3-0.9c-0.8-0.2-1.7-0.3-2.5-0.3c-1.2,0-2.3,0.2-3.4,0.6
			c-1.1,0.4-2,0.9-2.9,1.6c-0.8,0.7-1.5,1.6-1.9,2.6c-0.5,1.1-0.7,2.3-0.7,3.6s0.2,2.6,0.7,3.6C168.8,231.5,169.4,232.3,170.2,233z
			 M170,224.2c0.4-0.8,0.9-1.4,1.5-1.9c0.6-0.5,1.4-0.9,2.2-1.1c0.9-0.3,1.8-0.4,2.7-0.4c1,0,1.9,0.1,2.7,0.4
			c0.9,0.3,1.6,0.6,2.2,1.1c0.6,0.5,1.1,1.1,1.5,1.9c0.4,0.8,0.5,1.6,0.5,2.6c0,1-0.2,1.9-0.5,2.6c-0.4,0.8-0.9,1.4-1.5,1.9
			c-0.6,0.5-1.4,0.9-2.2,1.1c-0.9,0.3-1.8,0.4-2.7,0.4c-1,0-1.9-0.1-2.7-0.4c-0.9-0.3-1.6-0.6-2.2-1.1c-0.6-0.5-1.1-1.1-1.5-1.9
			c-0.4-0.8-0.6-1.6-0.6-2.6C169.5,225.8,169.7,224.9,170,224.2z"/>
		<path class="st0" d="M185.2,195l-7.4,6.1c-0.4-1.4-1-2.5-1.9-3.2c-0.9-0.8-1.9-1.2-3.1-1.2c-0.8,0-1.5,0.2-2.1,0.5
			c-0.6,0.3-1.1,0.8-1.5,1.4c-0.4,0.6-0.7,1.3-0.9,2.1c-0.2,0.8-0.3,1.7-0.3,2.6v4.5h17.3v-2.4h-6.9c0-0.1,0-0.2,0-0.4
			c0-0.2,0-0.4,0-0.6c0-0.2,0-0.4,0-0.5c0-0.2,0-0.3,0-0.4l7-5.6V195z M176.3,205.5h-6.5v-2.1c0-0.6,0.1-1.1,0.2-1.6
			c0.1-0.5,0.3-1,0.5-1.4c0.2-0.4,0.5-0.7,0.9-0.9s0.9-0.4,1.4-0.4c0.6,0,1.1,0.1,1.6,0.4c0.4,0.3,0.8,0.6,1.1,1.1
			c0.3,0.5,0.5,1,0.6,1.6c0.1,0.6,0.2,1.3,0.2,2V205.5z"/>
		<path class="st0" d="M168.7,184.6c0.4,0.5,0.9,0.9,1.4,1.1c0.6,0.3,1.2,0.4,2,0.4c0.7,0,1.2-0.1,1.7-0.4c0.5-0.3,0.9-0.6,1.3-1
			c0.4-0.4,0.7-0.9,1-1.4c0.3-0.5,0.6-1.1,0.9-1.7c0.2-0.5,0.5-1,0.7-1.5c0.2-0.5,0.5-0.9,0.8-1.2c0.3-0.3,0.6-0.6,1-0.8
			c0.4-0.2,0.8-0.3,1.3-0.3c0.9,0,1.6,0.3,2.1,1c0.5,0.7,0.7,1.6,0.7,2.7c0,0.8-0.1,1.6-0.3,2.3c-0.2,0.8-0.4,1.5-0.7,2.1l1.9,0.5
			c0.3-0.7,0.6-1.5,0.8-2.4c0.2-0.9,0.3-1.7,0.3-2.6c0-0.8-0.1-1.6-0.3-2.4c-0.2-0.7-0.5-1.4-1-1.9c-0.4-0.5-0.9-1-1.5-1.3
			s-1.3-0.5-2-0.5c-0.8,0-1.5,0.2-2.1,0.5c-0.6,0.3-1.1,0.8-1.5,1.3c-0.4,0.5-0.8,1.1-1.1,1.7c-0.3,0.6-0.6,1.2-0.9,1.8
			c-0.3,0.6-0.5,1-0.7,1.4c-0.2,0.4-0.4,0.7-0.7,0.9c-0.2,0.2-0.5,0.4-0.8,0.5c-0.3,0.1-0.6,0.2-0.9,0.2c-1.6,0-2.4-1-2.4-3.1
			c0-0.7,0.1-1.4,0.3-2.2c0.2-0.7,0.4-1.3,0.7-1.9l-1.9-0.4c-0.3,0.6-0.6,1.3-0.8,2.1c-0.2,0.8-0.3,1.6-0.3,2.4
			c0,0.8,0.1,1.6,0.3,2.2C168,183.5,168.3,184.1,168.7,184.6z"/>
		<polygon class="st0" points="169.8,161.6 185.2,161.6 185.2,159.2 169.8,159.2 169.8,154.1 167.9,154.1 167.9,166.7 169.8,166.7 
					"/>
		<path class="st0" d="M181.6,143.9c0.8-0.3,1.5-0.7,2-1.3c0.6-0.6,1-1.3,1.4-2.1c0.3-0.8,0.5-1.8,0.5-2.9c0-1.1-0.2-2.1-0.5-2.9
			c-0.3-0.8-0.8-1.5-1.4-2.1c-0.6-0.6-1.3-1-2-1.3c-0.8-0.3-1.6-0.4-2.5-0.4h-11.2v2.4h11.3c1.3,0,2.4,0.4,3.2,1.1
			c0.8,0.7,1.2,1.8,1.2,3.3c0,1.5-0.4,2.5-1.2,3.3c-0.8,0.7-1.9,1.1-3.2,1.1h-11.3v2.4H179C179.9,144.3,180.8,144.2,181.6,143.9z"/>
		<polygon class="st0" points="185.2,112.6 167.9,106.4 167.9,108.8 182.3,113.8 167.9,118.9 167.9,121.3 185.2,115.1 		"/>
		<polygon class="st0" points="185.2,90.6 170.2,86.3 185.2,82 185.2,79.6 167.9,74.7 167.9,77 182,80.8 167.9,84.9 167.9,87.6 
			182,91.8 167.9,95.6 167.9,97.9 185.2,93 		"/>
		<polygon class="st0" points="185.2,66.1 185.2,63.5 178.3,59.1 185.2,54.6 185.2,52 176.5,57.8 167.9,52.1 167.9,54.6 174.6,59.1 
			167.9,63.5 167.9,66 176.5,60.3 		"/>
		<polygon class="st0" points="185.2,38.1 185.2,35.7 178.3,35.7 167.9,30 167.9,32.6 176.1,36.9 167.9,41.3 167.9,43.8 178.3,38.1 
					"/>
		<path class="st0" d="M22.5,180.7L-83,415.2c-0.5,1,0,2.2,1,2.6l23,10.4c1,0.5,2.2,0,2.6-1l34.4-76.4c0.3-0.7,1-1.2,1.8-1.2H92.9
			c0.8,0,1.5,0.5,1.8,1.2l34.4,76.4c0.5,1,1.6,1.5,2.6,1l23-10.4c1-0.5,1.5-1.6,1-2.6L50.2,180.7c-0.3-0.7-1-1.2-1.8-1.2l-24.1,0
			C23.5,179.5,22.8,180,22.5,180.7z M-7,317.5l41.6-92.3c0.7-1.6,2.9-1.6,3.6,0l41.6,92.3c0.6,1.3-0.4,2.8-1.8,2.8H-5.2
			C-6.6,320.4-7.6,318.9-7,317.5z"/>
		<path class="st0" d="M406.4,193.5L396,172c-0.3-0.7-1-1.1-1.8-1.1H231.4c-1.1,0-2,0.9-2,2v25.3c0,1.1,0.9,2,2,2h129.7
			c1.7,0,2.6,1.9,1.6,3.2L208.1,399.7c-0.5,0.6-0.6,1.4-0.2,2.1l10.4,21.4c0.3,0.7,1,1.1,1.8,1.1h188c1.1,0,2-0.9,2-2v-25.3
			c0-1.1-0.9-2-2-2h-155c-1.7,0-2.6-1.9-1.6-3.2l154.6-196.3C406.6,195,406.7,194.2,406.4,193.5z"/>
		<path class="st0" d="M467.9-2.7h-575.8c-6.7,0-12.1,5.4-12.1,12.1v575.8c0,6.7,5.4,12.1,12.1,12.1h575.8c6.7,0,12.1-5.4,12.1-12.1
			V9.4C480,2.7,474.6-2.7,467.9-2.7z M472.5,585.2c0,2.5-2,4.6-4.6,4.6h-575.8c-2.5,0-4.6-2-4.6-4.6V9.4c0-2.5,2-4.6,4.6-4.6h575.8
			c2.5,0,4.6,2,4.6,4.6V585.2z"/>
	</g>
</g>
<g id="Layer_2">
</g>
</svg>
