<?xml version="1.0" encoding="utf-8"?>
<!-- Generator: Adobe Illustrator 19.0.1, SVG Export Plug-In . SVG Version: 6.00 Build 0)  -->
<svg version="1.1" id="Layer_1" xmlns="http://www.w3.org/2000/svg" xmlns:xlink="http://www.w3.org/1999/xlink" x="0px" y="0px"
	 viewBox="0 200 400 600" style="enable-background:new 0 200 400 600;" xml:space="preserve">
<style type="text/css">
	.st0{fill:#F7FAE8;}
	.st1{fill:#81AABC;}
	.st2{fill:#CF4359;}
	.st3{fill:#84AD8D;}
	.st4{fill:#2F2D3B;}
	.st5{fill:#572E58;}
	.st6{fill:#CF4359;stroke:#CF4359;stroke-miterlimit:10;}
	.st7{fill:#F8FFE8;stroke:#F8FFE8;stroke-miterlimit:10;}
	.st8{fill:#84AD8D;stroke:#84AD8D;stroke-miterlimit:10;}
	.st9{fill:#2F2D3B;stroke:#2F2D3B;stroke-miterlimit:10;}
	.st10{fill:#572E58;stroke:#572E58;stroke-miterlimit:10;}
	.st11{fill:#81ABBD;stroke:#81ABBD;stroke-miterlimit:10;}
	.st12{fill:none;stroke:#F7FAE8;stroke-width:3.003;stroke-miterlimit:10;}
	.st13{fill:none;stroke:#F7FAE8;stroke-width:3;stroke-miterlimit:10;}
	.st14{fill:#F8FFE8;}
	.st15{fill:none;stroke:#F7FAE8;stroke-width:6;stroke-miterlimit:10;}
</style>
<rect y="700" class="st0" width="399.2" height="100"/>
<rect y="200" class="st1" width="400" height="100"/>
<rect y="600" class="st2" width="400" height="200"/>
<rect y="500" class="st3" width="400" height="100"/>
<rect y="400" class="st4" width="400" height="100"/>
<rect x="0.5" y="300" class="st5" width="399.5" height="100"/>
<g>
	<path class="st6" d="M242.4,200h-31.34c0,0,0,1.36,0,3.95c0,2.59,0,6.41-0.03,11.35c-0.01,2.47-0.05,5.22-0.13,8.24
		c-0.07,3.03-0.19,6.33-0.36,9.91c-0.17,3.58-0.4,7.41-0.72,11.48c-0.31,4.07-0.7,8.37-1.2,12.87c-0.5,4.5-1.16,9.2-2.02,14.11
		c-0.43,2.45-0.93,4.96-1.48,7.52c-0.55,2.56-1.16,5.18-1.83,7.87c-0.67,2.68-1.4,5.44-2.18,8.26c-0.79,2.82-1.62,5.72-2.49,8.71
		c-0.87,2.99-1.78,6.06-2.69,9.24c-0.92,3.18-1.83,6.46-2.74,9.86c-0.9,3.39-1.79,6.88-2.62,10.5c-0.84,3.62-1.63,7.39-2.36,11.33
		c-0.74,3.94-1.41,8.05-2.04,12.32c-0.57,4.29-1.05,8.78-1.4,13.5c-0.17,2.36-0.3,4.77-0.39,7.23c-0.09,2.46-0.13,4.97-0.14,7.51
		c-0.01,2.55,0.05,5.15,0.16,7.8c0.11,2.65,0.27,5.33,0.49,8.07c0.22,2.74,0.52,5.53,0.87,8.35s0.78,5.68,1.27,8.56
		c0.49,2.88,1.03,5.79,1.64,8.7s1.26,5.84,1.97,8.77c0.71,2.93,1.47,5.86,2.3,8.79c0.83,2.93,1.72,5.86,2.66,8.79
		c0.94,2.92,1.93,5.84,2.97,8.72s2.1,5.75,3.19,8.59c1.09,2.83,2.2,5.63,3.31,8.38c1.12,2.75,2.25,5.47,3.39,8.14
		c1.14,2.67,2.28,5.3,3.42,7.87c1.13,2.57,2.27,5.1,3.4,7.58c1.14,2.48,2.27,4.92,3.41,7.3c1.13,2.38,2.26,4.71,3.4,6.98
		c1.14,2.27,2.28,4.47,3.41,6.61c1.13,2.13,2.26,4.2,3.38,6.19c1.12,1.99,2.22,3.92,3.33,5.79s2.22,3.68,3.34,5.43
		c2.23,3.51,4.43,6.81,6.54,9.9c2.12,3.09,4.14,5.99,6.03,8.7s3.66,5.27,5.25,7.68c1.59,2.41,2.97,4.69,4.1,6.86
		c1.13,2.16,2,4.23,2.56,6.2c0.56,1.97,0.79,3.86,0.68,5.69c-0.12,1.82-0.6,3.58-1.45,5.28c-0.85,1.7-2.03,3.34-3.4,4.95
		c-1.41,1.62-2.98,3.21-4.67,4.78c-1.69,1.57-3.49,3.14-5.35,4.71c-1.87,1.57-3.79,3.15-5.74,4.75c-1.95,1.6-3.89,3.24-5.82,4.88
		c-1.86,1.7-3.69,3.44-5.43,5.24c-1.74,1.8-3.4,3.66-5.01,5.57c-1.53,1.96-2.98,3.98-4.28,6.1c-1.3,2.12-2.46,4.35-3.47,6.68
		c-1,2.33-1.84,4.79-2.51,7.38c-0.67,2.59-1.17,5.31-1.52,8.14s-0.58,5.72-0.73,8.66c-0.15,2.93-0.22,5.9-0.25,8.86
		c-0.01,2.98-0.01,5.93-0.01,8.85c0,69.97,0,118.95,0,118.95h31.34c0,0,0-37.5,0-93.75c0-2.68,0-5.4,0-8.16
		c0.01-2.75,0.06-5.53,0.17-8.3c0.11-2.77,0.31-5.53,0.6-8.29c0.33-2.73,0.78-5.43,1.39-8.1c0.6-2.67,1.37-5.31,2.29-7.93
		c0.97-2.61,2.09-5.21,3.4-7.78s2.82-5.1,4.59-7.58c1.77-2.48,3.79-4.9,6.04-7.29c2.25-2.39,4.7-4.75,7.31-7.12
		c1.36-1.17,2.75-2.34,4.17-3.52c1.42-1.18,2.88-2.37,4.38-3.56c1.47-1.17,2.97-2.34,4.48-3.52c1.52-1.18,3.05-2.36,4.6-3.54
		c1.51-1.19,3-2.38,4.49-3.58c1.48-1.21,2.95-2.43,4.4-3.67c2.76-2.53,5.36-5.15,7.71-7.82c2.27-2.78,4.24-5.61,5.82-8.52
		s2.74-5.85,3.41-8.75c0.66-2.91,0.84-5.66,0.57-8.1c-0.28-2.45-0.96-4.54-1.97-6.32c-1.01-1.78-2.3-3.3-3.83-4.67
		c-1.53-1.37-3.28-2.68-5.24-4.06c-1.96-1.38-4.11-2.92-6.4-4.57c-2.29-1.65-4.71-3.41-7.25-5.28c-2.53-1.88-5.17-3.88-7.92-6.04
		c-1.37-1.08-2.76-2.21-4.18-3.38c-1.42-1.18-2.86-2.4-4.31-3.68c-1.46-1.28-2.92-2.62-4.39-4.03c-1.47-1.4-2.96-2.87-4.47-4.41
		c-1.51-1.54-3.03-3.15-4.56-4.84c-1.53-1.69-3.06-3.46-4.61-5.32c-1.54-1.85-3.1-3.81-4.66-5.85c-1.56-2.04-3.13-4.17-4.71-6.38
		c-1.57-2.21-3.15-4.51-4.73-6.89c-1.58-2.37-3.15-4.81-4.76-7.32c-1.6-2.51-3.22-5.09-4.84-7.74c-1.62-2.65-3.24-5.37-4.85-8.17
		c-1.61-2.8-3.19-5.66-4.72-8.56s-3.01-5.85-4.45-8.85s-2.83-6.06-4.17-9.16c-1.33-3.1-2.6-6.24-3.8-9.42
		c-1.2-3.18-2.33-6.39-3.36-9.61c-1.04-3.22-1.98-6.45-2.82-9.69c-0.84-3.24-1.57-6.46-2.18-9.66c-0.61-3.19-1.12-6.36-1.52-9.51
		c-0.41-3.15-0.71-6.26-0.92-9.32c-0.21-3.06-0.31-6.07-0.31-9.01c0-2.96,0.09-5.84,0.27-8.64c0.19-2.8,0.45-5.53,0.79-8.19
		c0.34-2.66,0.75-5.24,1.23-7.73c0.47-2.49,1.01-4.9,1.62-7.2c1.22-4.64,2.57-8.95,4.02-12.99c1.45-4.04,2.96-7.81,4.51-11.32
		s3.09-6.81,4.63-9.97c1.49-3.07,2.97-6.01,4.4-8.84c1.43-2.83,2.8-5.56,4.14-8.24c1.33-2.67,2.62-5.29,3.85-7.85
		c1.23-2.56,2.4-5.08,3.5-7.55c1.1-2.47,2.12-4.91,3.03-7.3c0.91-2.39,1.75-4.75,2.5-7.08s1.43-4.62,2.01-6.87
		c1.17-4.51,2.03-8.9,2.72-13.12c0.61-4.26,1.12-8.35,1.51-12.25c0.39-3.9,0.67-7.61,0.87-11.08c0.2-3.47,0.32-6.7,0.39-9.69
		c0.07-2.98,0.1-5.71,0.11-8.17c0.01-4.92,0.01-8.74,0.01-11.34C242.4,201.36,242.4,200,242.4,200z"/>
	<path class="st7" d="M273.74,200H242.4c0,0,0,1.36,0,3.95c0,2.59,0,6.41-0.01,11.34c0,2.46-0.04,5.19-0.11,8.17
		c-0.07,2.98-0.2,6.22-0.39,9.69c-0.2,3.47-0.48,7.17-0.87,11.08c-0.39,3.9-0.9,7.99-1.51,12.25c-0.69,4.22-1.55,8.61-2.72,13.12
		c-0.59,2.26-1.26,4.55-2.01,6.87c-0.75,2.33-1.59,4.68-2.5,7.08s-1.93,4.83-3.03,7.3c-1.1,2.47-2.27,4.98-3.5,7.55
		s-2.52,5.18-3.85,7.85c-1.33,2.67-2.71,5.41-4.14,8.24c-1.43,2.83-2.9,5.77-4.4,8.84c-1.54,3.16-3.08,6.46-4.63,9.97
		c-1.54,3.51-3.06,7.29-4.51,11.32c-1.45,4.04-2.8,8.35-4.02,12.99c-0.61,2.31-1.14,4.71-1.62,7.2c-0.47,2.49-0.89,5.07-1.23,7.73
		c-0.34,2.66-0.61,5.39-0.79,8.19c-0.19,2.8-0.28,5.68-0.27,8.64c0,2.94,0.11,5.95,0.31,9.02c0.21,3.06,0.51,6.18,0.92,9.32
		c0.41,3.15,0.91,6.32,1.52,9.51c0.61,3.19,1.34,6.41,2.18,9.66c0.84,3.23,1.78,6.46,2.82,9.69s2.16,6.43,3.36,9.61
		c1.2,3.18,2.47,6.32,3.8,9.42c1.33,3.1,2.73,6.16,4.17,9.16c1.44,3,2.92,5.95,4.45,8.85c1.53,2.9,3.11,5.75,4.72,8.56
		c1.61,2.8,3.23,5.52,4.85,8.17c1.62,2.65,3.24,5.23,4.84,7.74c1.6,2.51,3.18,4.95,4.76,7.32c1.58,2.37,3.15,4.68,4.73,6.89
		c1.57,2.21,3.14,4.34,4.71,6.38c1.56,2.04,3.12,3.99,4.66,5.85c1.54,1.86,3.08,3.63,4.61,5.32c1.53,1.69,3.05,3.3,4.56,4.84
		c1.51,1.54,3,3,4.47,4.41c1.47,1.4,2.93,2.75,4.39,4.03c1.46,1.28,2.9,2.51,4.31,3.68s2.81,2.3,4.18,3.38
		c2.74,2.16,5.38,4.17,7.92,6.04c2.53,1.88,4.96,3.64,7.25,5.28c2.29,1.65,4.44,3.19,6.4,4.57c1.96,1.38,3.71,2.69,5.24,4.06
		c1.53,1.37,2.82,2.89,3.83,4.67c1.01,1.78,1.69,3.87,1.97,6.32c0.28,2.45,0.09,5.2-0.57,8.1c-0.67,2.9-1.83,5.84-3.41,8.75
		c-1.58,2.91-3.55,5.74-5.82,8.52c-2.35,2.67-4.95,5.29-7.71,7.82c-1.45,1.24-2.92,2.46-4.4,3.67c-1.48,1.21-2.98,2.4-4.49,3.58
		c-1.54,1.18-3.08,2.36-4.6,3.54c-1.52,1.18-3.01,2.35-4.48,3.52c-1.5,1.19-2.95,2.38-4.38,3.56s-2.82,2.35-4.17,3.52
		c-2.61,2.37-5.06,4.74-7.31,7.12c-2.25,2.39-4.27,4.81-6.04,7.29c-1.77,2.48-3.28,5.01-4.59,7.58s-2.43,5.17-3.4,7.78
		c-0.92,2.62-1.69,5.26-2.29,7.93c-0.6,2.67-1.06,5.37-1.39,8.1c-0.29,2.76-0.49,5.52-0.6,8.29c-0.11,2.77-0.16,5.55-0.17,8.3
		c0,2.76,0,5.48,0,8.16c0,56.25,0,93.75,0,93.75h31.34c0,0,0-27.55,0-70.85c0-4.81,0-9.82,0.04-14.98c0.02-2.58,0.11-5.18,0.23-7.81
		c0.14-2.63,0.28-5.31,0.49-8.03c0.21-2.73,0.54-5.47,1-8.24s1.06-5.56,1.83-8.39c0.77-2.83,1.71-5.69,2.87-8.57
		c1.16-2.87,2.55-5.75,4.18-8.63c1.63-2.89,3.5-5.8,5.63-8.73c2.13-2.94,4.49-5.88,7.08-8.87c1.29-1.49,2.64-3,4.03-4.54
		c1.4-1.53,2.84-3.1,4.33-4.69c1.49-1.6,3.02-3.25,4.57-4.96c1.55-1.71,3.12-3.5,4.69-5.37c1.58-1.87,3.14-3.85,4.67-5.94
		s3.02-4.32,4.46-6.69c1.42-2.34,2.74-4.82,3.95-7.44c1.21-2.63,2.3-5.39,3.29-8.22c0.81-2.83,1.5-5.7,2.06-8.62
		c0.56-2.92,1-5.88,1.33-8.84c0.16-2.86,0.23-5.69,0.18-8.45s-0.2-5.46-0.51-8.08c-0.6-5.24-1.59-9.97-2.9-14.14
		c-1.32-4.17-2.89-7.75-4.64-10.69c-1.75-2.94-3.63-5.28-5.56-7.13c-1.97-1.65-3.94-2.83-5.89-3.5c-1.95-0.67-3.87-0.98-5.8-1.11
		c-1.93-0.13-3.88-0.21-5.9-0.39c-2.02-0.18-4.12-0.58-6.35-1.34c-2.23-0.76-4.6-1.94-7.05-3.32c-2.5-1.49-5.05-3.09-7.68-4.83
		c-1.31-0.87-2.63-1.76-3.95-2.68c-1.33-0.92-2.68-1.88-4.05-2.9c-1.37-1.02-2.77-2.1-4.18-3.25c-1.41-1.15-2.85-2.38-4.33-3.69
		s-2.99-2.72-4.54-4.24c-1.55-1.52-3.13-3.14-4.74-4.85c-1.61-1.71-3.26-3.51-4.94-5.4c-1.69-1.89-3.41-3.86-5.15-5.91
		c-1.74-2.05-3.51-4.2-5.27-6.42s-3.52-4.54-5.29-6.94c-1.76-2.4-3.52-4.89-5.26-7.48s-3.44-5.26-5.09-8.02
		c-1.65-2.76-3.23-5.6-4.72-8.5s-2.9-5.87-4.23-8.92c-1.33-3.05-2.56-6.18-3.71-9.37c-1.1-3.18-2.11-6.42-2.99-9.7
		s-1.63-6.58-2.23-9.88c-0.6-3.3-1.04-6.59-1.32-9.86c-0.28-3.27-0.4-6.5-0.39-9.66c0.02-3.16,0.18-6.26,0.5-9.28
		c0.31-3.02,0.77-5.94,1.36-8.74s1.31-5.49,2.13-8.07c0.83-2.59,1.75-5.06,2.76-7.4s2.1-4.54,3.23-6.61
		c1.2-2.04,2.41-3.99,3.64-5.86c1.23-1.86,2.47-3.64,3.7-5.32c1.31-1.65,2.6-3.22,3.87-4.74c1.28-1.51,2.54-2.97,3.79-4.36
		c2.5-2.79,4.93-5.42,7.24-7.91c2.32-2.5,4.5-4.89,6.55-7.23c2.05-2.33,3.96-4.61,5.72-6.85c1.76-2.24,3.37-4.45,4.9-6.65
		c1.48-2.22,2.9-4.43,4.22-6.65c1.32-2.21,2.54-4.43,3.67-6.64c1.08-2.22,2.08-4.43,2.94-6.65c1.72-4.43,3.07-8.82,4.09-13.12
		c1.02-4.31,1.76-8.51,2.32-12.57c0.42-4.12,0.7-8.12,0.86-11.98c0.16-3.86,0.22-7.56,0.25-11.04c0.01-3.5,0.01-6.75,0.01-9.75
		C273.74,208.5,273.74,200,273.74,200z"/>
	<path class="st8" d="M305.08,200h-31.34c0,0,0,8.5,0,23.49c0,3,0,6.25-0.01,9.75c-0.03,3.48-0.09,7.18-0.25,11.04
		c-0.16,3.86-0.44,7.85-0.86,11.98c-0.56,4.06-1.3,8.26-2.32,12.57c-1.02,4.3-2.37,8.69-4.09,13.12c-0.86,2.22-1.85,4.43-2.94,6.65
		c-1.13,2.21-2.34,4.42-3.67,6.64c-1.32,2.21-2.74,4.43-4.22,6.65c-1.52,2.2-3.14,4.42-4.9,6.65c-1.76,2.24-3.67,4.52-5.72,6.85
		c-2.05,2.33-4.23,4.73-6.55,7.23c-2.32,2.5-4.74,5.12-7.24,7.91c-1.25,1.4-2.51,2.85-3.79,4.36c-1.28,1.51-2.57,3.09-3.87,4.74
		c-1.24,1.68-2.48,3.46-3.7,5.32c-1.23,1.86-2.44,3.81-3.64,5.86c-1.13,2.07-2.22,4.28-3.23,6.61c-1.01,2.34-1.93,4.81-2.76,7.4
		c-0.82,2.57-1.54,5.26-2.13,8.07c-0.59,2.8-1.05,5.72-1.36,8.74c-0.31,3.02-0.48,6.12-0.5,9.28c-0.02,3.16,0.11,6.39,0.39,9.66
		c0.28,3.27,0.72,6.56,1.32,9.86c0.6,3.3,1.35,6.6,2.23,9.88c0.89,3.28,1.9,6.52,2.99,9.7c1.15,3.2,2.38,6.32,3.71,9.37
		c1.33,3.05,2.74,6.02,4.23,8.92c1.49,2.9,3.07,5.74,4.72,8.5c1.65,2.76,3.35,5.44,5.09,8.02s3.49,5.08,5.26,7.48
		c1.76,2.4,3.52,4.71,5.29,6.94s3.52,4.37,5.27,6.42c1.74,2.05,3.47,4.02,5.15,5.91c1.69,1.89,3.34,3.69,4.94,5.4
		c1.61,1.71,3.19,3.33,4.74,4.85c1.55,1.52,3.06,2.93,4.54,4.24s2.92,2.54,4.33,3.69s2.81,2.24,4.18,3.25
		c1.37,1.02,2.72,1.98,4.05,2.9c1.33,0.92,2.64,1.81,3.95,2.68c2.63,1.74,5.18,3.34,7.68,4.83c2.45,1.38,4.82,2.56,7.05,3.32
		c2.23,0.76,4.34,1.16,6.35,1.34c2.02,0.18,3.97,0.26,5.9,0.39c1.93,0.13,3.85,0.44,5.8,1.11c1.95,0.67,3.92,1.86,5.89,3.5
		c1.93,1.86,3.81,4.19,5.56,7.13c1.75,2.94,3.33,6.52,4.64,10.69c1.32,4.17,2.3,8.9,2.9,14.14c0.3,2.62,0.46,5.32,0.51,8.08
		c0.05,2.76-0.02,5.59-0.18,8.45c-0.33,2.96-0.77,5.92-1.33,8.84c-0.56,2.92-1.25,5.79-2.06,8.62c-0.99,2.83-2.08,5.6-3.29,8.22
		c-1.21,2.63-2.53,5.11-3.95,7.44c-1.43,2.37-2.93,4.59-4.46,6.69c-1.53,2.09-3.09,4.07-4.67,5.94c-1.58,1.87-3.15,3.66-4.69,5.37
		c-1.55,1.71-3.08,3.36-4.57,4.96c-1.49,1.6-2.94,3.16-4.33,4.69c-1.4,1.53-2.74,3.04-4.03,4.54c-2.59,2.99-4.95,5.94-7.08,8.87
		c-2.13,2.94-4,5.85-5.63,8.73c-1.62,2.88-3.02,5.76-4.18,8.63c-1.16,2.88-2.11,5.74-2.87,8.57c-0.77,2.83-1.37,5.62-1.83,8.39
		c-0.46,2.77-0.78,5.51-1,8.24c-0.21,2.72-0.36,5.4-0.49,8.03c-0.12,2.63-0.21,5.23-0.23,7.81c-0.04,5.16-0.04,10.17-0.04,14.98
		c0,43.29,0,70.85,0,70.85h31.34c0,0,0-21.77,0-57.01c0-4.41,0-9.02-0.02-13.86c-0.01-2.42-0.01-4.9-0.03-7.44
		c0.02-2.54,0.04-5.13,0.07-7.79c0.08-2.64,0.15-5.33,0.27-8.08c0.12-2.75,0.32-5.53,0.61-8.34c0.37-2.79,0.84-5.61,1.45-8.44
		c0.62-2.83,1.42-5.66,2.42-8.51c0.99-2.85,2.18-5.72,3.54-8.64c1.36-2.92,2.91-5.91,4.63-9c1.72-3.09,3.61-6.31,5.66-9.74
		c1.02-1.71,2.08-3.48,3.17-5.3c1.08-1.82,2.2-3.69,3.33-5.61c1.13-1.99,2.27-4.05,3.4-6.21s2.27-4.42,3.38-6.78
		c1.12-2.36,2.19-4.85,3.22-7.46c1.03-2.61,2-5.35,2.9-8.24s1.71-5.9,2.43-9.04c0.72-3.14,1.33-6.41,1.82-9.8
		c0.49-3.39,0.86-6.87,1.12-10.43c0.26-3.55,0.38-7.19,0.39-10.86c-0.11-3.64-0.32-7.27-0.67-10.9s-0.84-7.25-1.47-10.82
		c-0.63-3.57-1.39-7.04-2.29-10.41c-0.89-3.36-1.91-6.6-3.02-9.66c-1.11-3.07-2.31-5.94-3.58-8.6c-1.27-2.66-2.6-5.11-3.97-7.33
		c-1.37-2.22-2.77-4.22-4.2-6c-1.42-1.78-2.86-3.35-4.31-4.71c-1.45-1.36-2.87-2.49-4.27-3.42c-1.4-0.93-2.78-1.68-4.13-2.26
		c-1.35-0.58-2.67-1-3.96-1.3c-1.3-0.3-2.57-0.5-3.84-0.63c-1.26-0.13-2.52-0.18-3.79-0.22c-1.27-0.04-2.55-0.09-3.84-0.18
		c-1.29-0.09-2.6-0.24-3.9-0.45s-2.6-0.49-3.9-0.85c-1.3-0.37-2.6-0.84-3.93-1.45c-1.32-0.61-2.66-1.34-4-2.15
		c-1.37-0.88-2.73-1.79-4.1-2.74c-1.38-0.99-2.76-2.01-4.17-3.09c-1.4-1.08-2.8-2.18-4.2-3.33c-1.4-1.15-2.83-2.34-4.26-3.56
		c-1.43-1.23-2.88-2.47-4.33-3.74c-1.45-1.27-2.92-2.55-4.39-3.86c-1.47-1.3-2.94-2.62-4.42-3.95c-1.47-1.33-2.94-2.67-4.4-4
		c-1.46-1.33-2.91-2.66-4.35-4.03c-1.45-1.37-2.89-2.78-4.34-4.27c-1.45-1.48-2.89-3.04-4.34-4.69s-2.89-3.42-4.33-5.28
		c-1.44-1.86-2.86-3.82-4.25-5.91c-1.38-2.07-2.72-4.26-3.99-6.55s-2.48-4.68-3.62-7.19c-1.09-2.49-2.12-5.09-3.04-7.79
		c-0.92-2.7-1.73-5.47-2.4-8.32c-0.67-2.85-1.2-5.75-1.56-8.69c-0.36-2.94-0.55-5.88-0.55-8.81s0.19-5.83,0.58-8.69
		c0.39-2.86,0.97-5.64,1.74-8.31c0.78-2.67,1.74-5.21,2.86-7.61c1.2-2.37,2.5-4.59,3.93-6.62s2.98-3.89,4.6-5.57
		c1.63-1.68,3.31-3.21,5.02-4.63c1.71-1.42,3.45-2.75,5.21-3.98c1.76-1.23,3.53-2.42,5.3-3.58c1.77-1.15,3.54-2.27,5.3-3.34
		c1.76-1.07,3.51-2.12,5.24-3.15s3.44-2.04,5.12-3.03c1.68-0.99,3.33-1.97,4.93-2.93s3.17-1.92,4.69-2.87
		c3.06-1.91,5.9-3.82,8.5-5.74c2.61-1.92,4.96-3.86,7.06-5.82c2.09-1.96,3.93-3.96,5.54-6c1.61-2.04,3-4.11,4.26-6.2
		c1.18-2.13,2.28-4.27,3.25-6.45c0.97-2.18,1.82-4.39,2.57-6.63c0.74-2.24,1.39-4.5,1.91-6.78c1.04-4.58,1.77-9.17,2.25-13.71
		c0.31-4.65,0.44-9.22,0.45-13.62c0.01-4.4,0.01-8.6,0.01-12.57C305.08,216.67,305.08,200,305.08,200z"/>
	<path class="st9" d="M336.42,200h-31.34c0,0,0,16.67,0,44.44c0,3.97,0,8.16-0.01,12.57c-0.02,4.4-0.15,8.97-0.45,13.62
		c-0.49,4.54-1.21,9.14-2.25,13.71c-0.52,2.29-1.16,4.54-1.91,6.78c-0.74,2.24-1.59,4.45-2.57,6.63c-0.97,2.18-2.07,4.32-3.25,6.45
		c-1.26,2.09-2.65,4.16-4.26,6.2c-1.61,2.04-3.45,4.04-5.54,6c-2.09,1.96-4.45,3.9-7.06,5.82c-2.61,1.92-5.45,3.83-8.5,5.74
		c-1.52,0.95-3.08,1.91-4.69,2.87s-3.25,1.94-4.93,2.93s-3.39,2-5.12,3.03c-1.73,1.03-3.48,2.08-5.24,3.15
		c-1.77,1.08-3.53,2.19-5.3,3.34c-1.77,1.15-3.54,2.34-5.3,3.58c-1.76,1.23-3.5,2.56-5.21,3.98c-1.71,1.42-3.39,2.95-5.02,4.63
		c-1.63,1.68-3.17,3.54-4.6,5.57s-2.74,4.25-3.93,6.62c-1.12,2.4-2.08,4.94-2.86,7.61c-0.77,2.67-1.36,5.45-1.74,8.31
		c-0.39,2.86-0.58,5.76-0.58,8.69c0,2.93,0.19,5.87,0.55,8.81c0.36,2.94,0.89,5.85,1.56,8.69c0.67,2.85,1.48,5.62,2.4,8.32
		c0.92,2.7,1.95,5.3,3.04,7.79c1.14,2.51,2.35,4.9,3.62,7.19s2.62,4.48,3.99,6.55c1.39,2.09,2.81,4.05,4.25,5.91
		c1.44,1.86,2.89,3.62,4.33,5.28c1.45,1.66,2.89,3.21,4.34,4.69c1.45,1.48,2.89,2.9,4.34,4.27c1.45,1.37,2.9,2.7,4.36,4.03
		c1.46,1.33,2.93,2.67,4.4,4c1.47,1.33,2.95,2.65,4.42,3.95c1.47,1.3,2.93,2.59,4.39,3.86c1.45,1.27,2.9,2.52,4.33,3.74
		c1.43,1.23,2.86,2.42,4.26,3.56c1.4,1.15,2.8,2.25,4.2,3.33c1.4,1.08,2.78,2.09,4.17,3.09c1.36,0.95,2.73,1.86,4.1,2.74
		c1.34,0.81,2.68,1.54,4,2.15c1.32,0.61,2.63,1.08,3.93,1.45c1.3,0.37,2.59,0.64,3.9,0.85s2.61,0.36,3.9,0.45
		c1.29,0.09,2.57,0.14,3.84,0.18c1.27,0.04,2.53,0.09,3.79,0.22c1.26,0.13,2.54,0.33,3.84,0.63c1.3,0.3,2.61,0.73,3.96,1.3
		c1.35,0.58,2.72,1.32,4.13,2.26c1.4,0.93,2.82,2.06,4.27,3.42c1.45,1.36,2.89,2.93,4.31,4.71c1.42,1.78,2.82,3.78,4.2,6
		c1.37,2.22,2.7,4.67,3.97,7.33c1.26,2.66,2.46,5.53,3.58,8.6s2.12,6.3,3.02,9.66c0.89,3.36,1.65,6.84,2.29,10.41
		c0.63,3.57,1.13,7.19,1.47,10.82s0.56,7.26,0.67,10.9c-0.02,3.67-0.13,7.3-0.39,10.86c-0.26,3.55-0.63,7.03-1.12,10.43
		c-0.49,3.39-1.1,6.66-1.82,9.8c-0.72,3.14-1.53,6.15-2.43,9.04c-0.9,2.89-1.87,5.63-2.9,8.24c-1.03,2.61-2.11,5.1-3.22,7.46
		c-1.12,2.36-2.25,4.62-3.38,6.78s-2.27,4.22-3.4,6.21c-1.13,1.92-2.25,3.79-3.33,5.61c-1.08,1.82-2.14,3.59-3.17,5.3
		c-2.05,3.43-3.94,6.65-5.66,9.74c-1.72,3.09-3.26,6.08-4.63,9c-1.36,2.92-2.55,5.8-3.54,8.64c-0.99,2.85-1.8,5.68-2.42,8.51
		c-0.62,2.83-1.08,5.64-1.45,8.44c-0.28,2.81-0.49,5.59-0.61,8.34c-0.12,2.74-0.19,5.44-0.27,8.08c-0.03,2.66-0.05,5.25-0.07,7.79
		c0.02,2.55,0.02,5.03,0.03,7.44c0.02,4.84,0.02,9.45,0.02,13.86c0,35.24,0,57.01,0,57.01h31.34c0,0,0-16.67,0-44.44
		c0-3.97,0-8.16-0.02-12.58c-0.07-4.44-0.15-9.11-0.26-13.99c-0.05-2.44-0.07-4.93-0.06-7.48c0.01-2.54,0.04-5.14,0.1-7.8
		c0.06-2.63,0.17-5.31,0.36-8.02c0.19-2.71,0.47-5.45,0.82-8.23c0.41-2.79,0.9-5.62,1.48-8.49c0.65-2.88,1.39-5.84,2.24-8.89
		c0.85-3.05,1.82-6.22,2.9-9.51s2.25-6.75,3.5-10.35c1.26-3.69,2.58-7.57,3.95-11.7c1.37-4.13,2.76-8.51,4.11-13.2
		c0.68-2.35,1.33-4.78,1.96-7.28c0.63-2.5,1.23-5.09,1.79-7.78c0.56-2.69,1.07-5.47,1.53-8.33c0.46-2.86,0.88-5.81,1.23-8.84
		c0.35-3.04,0.62-6.17,0.8-9.39c0.18-3.22,0.29-6.53,0.31-9.91c0.02-3.39-0.05-6.85-0.25-10.39s-0.53-7.15-0.97-10.81
		c-0.44-3.66-1-7.35-1.7-11.07c-0.7-3.72-1.54-7.45-2.5-11.17c-0.97-3.74-2.07-7.44-3.31-11.11c-1.24-3.66-2.62-7.28-4.11-10.83
		s-3.12-6.94-4.87-10.2s-3.61-6.37-5.59-9.3c-1.98-2.94-4.05-5.69-6.21-8.22c-2.16-2.54-4.38-4.85-6.63-6.91
		c-2.23-2.04-4.47-3.81-6.65-5.28c-2.18-1.47-4.29-2.65-6.32-3.55c-2.02-0.9-3.96-1.56-5.79-2.01c-1.84-0.45-3.58-0.73-5.25-0.88
		c-1.67-0.15-3.28-0.23-4.85-0.28c-1.57-0.06-3.13-0.15-4.69-0.32c-1.56-0.18-3.14-0.5-4.76-1.02c-1.62-0.52-3.3-1.26-5.04-2.27
		c-1.74-1-3.58-2.31-5.45-3.78c-1.93-1.56-3.88-3.19-5.82-4.86c-1.94-1.67-3.82-3.3-5.63-4.9c-1.82-1.6-3.58-3.19-5.28-4.73
		c-1.7-1.55-3.34-3.07-4.94-4.59s-3.14-3.04-4.64-4.56c-1.49-1.51-2.93-3.02-4.32-4.54c-1.39-1.51-2.73-3.03-4.02-4.55
		s-2.53-3.04-3.71-4.57c-1.18-1.53-2.32-3.06-3.41-4.59c-1.09-1.53-2.13-3.07-3.11-4.66c-0.96-1.56-1.87-3.18-2.72-4.85
		c-0.84-1.66-1.59-3.4-2.27-5.21c-0.65-1.8-1.22-3.66-1.69-5.6s-0.81-3.92-1.02-5.95c-0.21-2.03-0.28-4.09-0.19-6.15
		c0.09-2.07,0.35-4.12,0.81-6.12c0.45-2,1.09-3.94,1.92-5.79s1.85-3.56,3.05-5.12c1.2-1.56,2.58-2.97,4.1-4.25
		c1.52-1.28,3.17-2.47,4.94-3.54c1.77-1.08,3.65-2.07,5.57-3.04c1.92-0.96,3.89-1.9,5.9-2.8s4.06-1.77,6.14-2.62
		c2.09-0.86,4.21-1.7,6.35-2.51c2.13-0.82,4.28-1.61,6.42-2.39c2.21-0.77,4.4-1.53,6.58-2.26c2.18-0.74,4.34-1.45,6.48-2.15
		c2.13-0.7,4.23-1.38,6.29-2.05c2.06-0.67,4.07-1.33,6.03-1.99c1.9-0.67,3.75-1.34,5.53-2.01c1.78-0.67,3.48-1.35,5.09-2.07
		c3.22-1.44,6.1-3.05,8.65-4.8c2.55-1.75,4.76-3.65,6.75-5.63c1.81-2.07,3.42-4.21,4.78-6.43c1.36-2.23,2.49-4.54,3.4-6.93
		c0.91-2.39,1.66-4.84,2.29-7.33c0.63-2.49,1.18-5,1.64-7.52s0.85-5.04,1.15-7.55c0.31-2.52,0.54-5.03,0.68-7.55
		c0.29-5.04,0.42-9.98,0.45-14.77c0-4.81,0-9.43,0-13.83C336.42,221.77,336.42,200,336.42,200z"/>
	<path class="st10" d="M367.76,200h-31.34c0,0,0,21.77,0,57.01c0,4.41,0,9.02,0,13.83c-0.03,4.8-0.16,9.73-0.45,14.77
		c-0.14,2.52-0.37,5.04-0.68,7.55c-0.31,2.52-0.69,5.04-1.15,7.55c-0.46,2.52-1.01,5.03-1.64,7.52c-0.63,2.49-1.38,4.94-2.29,7.33
		c-0.91,2.39-2.04,4.7-3.4,6.93c-1.36,2.23-2.98,4.36-4.78,6.43c-1.99,1.98-4.2,3.88-6.75,5.63c-2.55,1.75-5.43,3.36-8.65,4.8
		c-1.61,0.72-3.31,1.4-5.09,2.07c-1.78,0.67-3.63,1.34-5.53,2.01c-1.97,0.66-3.98,1.32-6.03,1.99c-2.06,0.67-4.15,1.36-6.29,2.05
		c-2.14,0.7-4.3,1.42-6.48,2.15c-2.18,0.74-4.38,1.49-6.58,2.26c-2.14,0.78-4.28,1.57-6.42,2.39c-2.13,0.82-4.25,1.66-6.35,2.51
		c-2.08,0.85-4.13,1.72-6.14,2.62s-3.98,1.83-5.9,2.8c-1.92,0.96-3.8,1.96-5.57,3.04c-1.77,1.08-3.42,2.26-4.94,3.54
		c-1.52,1.28-2.9,2.69-4.1,4.25c-1.2,1.56-2.22,3.28-3.05,5.12s-1.47,3.78-1.92,5.79c-0.45,2-0.72,4.05-0.81,6.12
		c-0.09,2.07-0.02,4.12,0.19,6.15c0.21,2.03,0.55,4.02,1.02,5.95s1.04,3.8,1.69,5.6c0.68,1.81,1.44,3.54,2.27,5.21
		c0.84,1.68,1.75,3.3,2.72,4.85c0.98,1.59,2.02,3.13,3.11,4.66c1.09,1.53,2.23,3.06,3.41,4.59s2.42,3.05,3.71,4.57
		c1.29,1.52,2.63,3.03,4.02,4.55c1.39,1.51,2.83,3.02,4.32,4.54c1.49,1.51,3.04,3.04,4.64,4.56c1.6,1.52,3.24,3.05,4.94,4.59
		c1.7,1.55,3.46,3.13,5.28,4.73c1.82,1.6,3.69,3.23,5.63,4.9c1.94,1.67,3.89,3.3,5.82,4.86c1.88,1.47,3.71,2.77,5.45,3.78
		c1.74,1,3.42,1.75,5.04,2.27c1.62,0.52,3.2,0.84,4.76,1.02c1.56,0.18,3.11,0.26,4.69,0.32s3.18,0.13,4.85,0.28
		c1.67,0.15,3.42,0.43,5.25,0.88c1.84,0.45,3.77,1.11,5.79,2.01c2.03,0.9,4.14,2.08,6.32,3.55c2.18,1.47,4.41,3.24,6.65,5.28
		c2.25,2.06,4.48,4.37,6.63,6.91c2.15,2.53,4.23,5.28,6.21,8.22c1.98,2.94,3.84,6.05,5.59,9.3s3.37,6.64,4.87,10.2
		c1.5,3.55,2.87,7.17,4.11,10.83c1.24,3.66,2.35,7.37,3.31,11.11c0.96,3.72,1.8,7.46,2.5,11.17c0.7,3.72,1.26,7.41,1.7,11.07
		c0.44,3.66,0.76,7.27,0.97,10.81s0.28,7,0.25,10.39c-0.02,3.38-0.13,6.69-0.31,9.91c-0.18,3.22-0.45,6.35-0.8,9.39
		c-0.35,3.03-0.76,5.98-1.23,8.84c-0.46,2.86-0.97,5.65-1.53,8.33c-0.56,2.69-1.16,5.28-1.79,7.78c-0.63,2.5-1.28,4.93-1.96,7.28
		c-1.35,4.69-2.75,9.07-4.11,13.2c-1.37,4.13-2.69,8.01-3.95,11.7c-1.25,3.61-2.42,7.06-3.5,10.35s-2.04,6.45-2.9,9.51
		c-0.85,3.05-1.59,6.01-2.24,8.89c-0.58,2.88-1.07,5.71-1.48,8.49c-0.35,2.78-0.63,5.52-0.82,8.23c-0.19,2.71-0.3,5.39-0.36,8.02
		c-0.06,2.66-0.09,5.26-0.1,7.8c-0.01,2.54,0.01,5.03,0.06,7.48c0.1,4.88,0.19,9.55,0.26,13.99c0.02,4.42,0.02,8.61,0.02,12.58
		c0,27.78,0,44.44,0,44.44h31.34c0,0,0-16.67,0-44.44c0-3.97,0-8.16-0.03-12.59c-0.02-4.42-0.04-9.08-0.04-13.98
		c0-2.45,0.04-4.97,0.1-7.54c0.06-2.58,0.15-5.22,0.25-7.93c0.11-2.72,0.26-5.49,0.45-8.33c0.19-2.84,0.44-5.76,0.75-8.77
		c0.3-3.01,0.66-6.11,1.06-9.3c0.41-3.19,0.87-6.5,1.38-9.94c0.51-3.43,1.07-6.98,1.67-10.68c0.6-3.7,1.23-7.57,1.88-11.55
		c0.67-4.08,1.33-8.32,1.95-12.84c0.62-4.53,1.17-9.36,1.67-14.47c0.24-2.56,0.45-5.22,0.62-7.98c0.17-2.76,0.29-5.61,0.37-8.56
		c0.08-2.95,0.12-5.99,0.11-9.12c-0.02-3.13-0.11-6.38-0.27-9.74c-0.17-3.36-0.42-6.83-0.75-10.38c-0.33-3.56-0.74-7.19-1.25-10.91
		c-0.5-3.72-1.13-7.52-1.88-11.4c-0.75-3.88-1.62-7.82-2.59-11.81c-0.97-3.99-2.09-7.98-3.35-11.98c-1.26-4-2.64-8-4.16-11.96
		c-1.51-3.95-3.18-7.88-4.98-11.74c-1.8-3.86-3.74-7.63-5.82-11.29c-2.08-3.65-4.28-7.18-6.62-10.53c-1.17-1.68-2.36-3.31-3.58-4.89
		c-1.22-1.58-2.46-3.12-3.73-4.6c-2.55-2.97-5.16-5.72-7.82-8.24c-2.67-2.52-5.38-4.84-8.11-6.94c-2.73-2.1-5.44-3.97-8.11-5.62
		c-2.68-1.65-5.3-3.08-7.84-4.27c-2.54-1.19-4.95-2.16-7.22-2.92c-2.27-0.77-4.41-1.38-6.42-1.9c-2.02-0.52-3.94-1.01-5.79-1.52
		c-1.85-0.51-3.65-1.09-5.44-1.77s-3.57-1.52-5.34-2.54c-1.77-1.02-3.55-2.24-5.31-3.59c-1.79-1.43-3.54-2.95-5.24-4.54
		c-1.71-1.59-3.35-3.22-4.93-4.88c-1.58-1.66-3.09-3.34-4.5-5.03c-1.42-1.68-2.75-3.37-4-5.06c-1.24-1.69-2.39-3.36-3.43-5.01
		c-1.04-1.65-1.99-3.28-2.83-4.89c-0.85-1.61-1.59-3.19-2.22-4.74c-0.63-1.55-1.16-3.08-1.57-4.57c-0.82-2.98-1.14-5.81-0.86-8.45
		c0.28-2.64,1.17-5.06,2.69-7.23c1.52-2.17,3.65-4.09,6.16-5.86c1.4-0.86,2.89-1.68,4.48-2.49c1.59-0.81,3.27-1.59,5.07-2.34
		c1.8-0.76,3.7-1.49,5.71-2.2c2.01-0.71,4.12-1.4,6.32-2.05c2.2-0.66,4.5-1.28,6.85-1.86s4.77-1.14,7.22-1.64
		c2.45-0.51,4.93-0.97,7.39-1.39s4.91-0.8,7.32-1.15c2.45-0.31,4.86-0.62,7.19-0.97c2.33-0.35,4.58-0.73,6.78-1.14
		c2.2-0.4,4.33-0.83,6.37-1.31c2.04-0.47,4.01-0.99,5.89-1.55c1.88-0.56,3.68-1.16,5.39-1.82c1.71-0.65,3.33-1.36,4.86-2.11
		c3.06-1.5,5.79-3.16,8.24-4.94c2.44-1.78,4.6-3.69,6.47-5.71s3.47-4.16,4.91-6.35c1.3-2.27,2.45-4.59,3.39-6.99s1.69-4.9,2.31-7.43
		c0.53-2.6,0.97-5.21,1.32-7.85c0.35-2.64,0.63-5.31,0.83-8c0.2-2.69,0.35-5.39,0.44-8.09c0.09-2.7,0.14-5.38,0.15-8.05
		s0.01-5.31,0.01-7.9C367.76,234.01,367.76,200,367.76,200z"/>
	<path class="st11" d="M399.1,200h-31.34c0,0,0,34.01,0,85.84c0,2.59,0,5.23-0.01,7.9c-0.01,2.67-0.06,5.36-0.15,8.05
		s-0.23,5.4-0.44,8.09c-0.2,2.69-0.48,5.36-0.83,8c-0.35,2.64-0.79,5.26-1.32,7.85c-0.62,2.54-1.37,5.03-2.31,7.43
		s-2.1,4.72-3.39,6.99c-1.44,2.2-3.04,4.33-4.91,6.35c-1.87,2.02-4.03,3.93-6.47,5.71c-2.44,1.78-5.17,3.44-8.24,4.94
		c-1.53,0.75-3.15,1.45-4.86,2.11c-1.71,0.65-3.51,1.26-5.39,1.82c-1.88,0.56-3.84,1.07-5.89,1.55c-2.04,0.47-4.17,0.9-6.37,1.31
		c-2.2,0.41-4.45,0.79-6.78,1.14c-2.33,0.35-4.73,0.66-7.19,0.97c-2.41,0.35-4.86,0.73-7.32,1.15c-2.47,0.42-4.94,0.88-7.39,1.39
		c-2.45,0.51-4.86,1.06-7.22,1.64s-4.65,1.21-6.85,1.86c-2.2,0.66-4.31,1.34-6.32,2.05c-2.01,0.71-3.92,1.44-5.71,2.2
		c-1.8,0.76-3.48,1.54-5.07,2.34c-1.59,0.81-3.08,1.63-4.48,2.49c-2.52,1.76-4.64,3.69-6.16,5.86c-1.52,2.17-2.41,4.59-2.69,7.23
		c-0.28,2.64,0.04,5.47,0.86,8.45c0.41,1.49,0.94,3.02,1.57,4.57c0.63,1.55,1.37,3.13,2.22,4.74c0.85,1.61,1.79,3.24,2.83,4.89
		s2.19,3.33,3.43,5.01c1.24,1.69,2.58,3.37,4,5.06s2.92,3.37,4.5,5.03c1.58,1.66,3.23,3.29,4.93,4.88c1.71,1.59,3.45,3.11,5.24,4.54
		c1.76,1.35,3.53,2.57,5.31,3.59c1.78,1.02,3.55,1.86,5.34,2.54c1.79,0.68,3.59,1.26,5.44,1.77c1.85,0.51,3.77,1,5.79,1.52
		c2.02,0.52,4.15,1.13,6.42,1.9c2.27,0.77,4.68,1.73,7.22,2.92c2.54,1.19,5.16,2.62,7.84,4.27c2.68,1.65,5.39,3.52,8.11,5.62
		s5.44,4.41,8.11,6.94c2.67,2.52,5.28,5.27,7.82,8.24c1.27,1.48,2.52,3.02,3.73,4.6c1.22,1.58,2.41,3.21,3.58,4.89
		c2.33,3.36,4.54,6.88,6.62,10.53c2.08,3.66,4.02,7.43,5.82,11.29c1.8,3.86,3.47,7.78,4.98,11.74c1.51,3.96,2.9,7.96,4.16,11.96
		c1.26,4,2.37,7.99,3.35,11.98c0.97,3.99,1.84,7.93,2.59,11.81c0.75,3.88,1.38,7.69,1.88,11.4c0.5,3.71,0.91,7.35,1.25,10.91
		c0.33,3.56,0.58,7.02,0.75,10.38c0.17,3.36,0.25,6.6,0.27,9.74c0.01,3.12-0.02,6.16-0.11,9.12s-0.21,5.81-0.37,8.56
		c-0.17,2.76-0.37,5.42-0.62,7.98c-0.49,5.11-1.05,9.94-1.67,14.47c-0.62,4.53-1.29,8.76-1.95,12.84
		c-0.65,3.98-1.28,7.85-1.88,11.55c-0.6,3.7-1.16,7.25-1.67,10.68c-0.51,3.43-0.97,6.74-1.38,9.94c-0.41,3.19-0.76,6.29-1.06,9.3
		c-0.3,3.01-0.55,5.93-0.75,8.77c-0.19,2.84-0.34,5.61-0.45,8.33c-0.11,2.72-0.19,5.36-0.25,7.93c-0.06,2.57-0.1,5.09-0.1,7.54
		c0,4.9,0.01,9.56,0.04,13.98c0.02,4.42,0.03,8.62,0.03,12.59c0,27.78,0,44.44,0,44.44h31.34c0,0,0-16.67,0-44.44
		c0-3.97,0-8.16,0-12.57c0.02-4.42,0.06-9.09,0.11-14.01c0.05-2.48,0.09-5.04,0.13-7.69c0.04-2.66,0.09-5.43,0.13-8.32
		c0.04-2.89,0.08-5.92,0.13-9.08s0.11-6.5,0.16-10c0.06-3.49,0.13-7.15,0.19-11.02c0.06-3.87,0.12-7.96,0.16-12.29
		c0.04-4.33,0.05-8.96,0.04-13.86c0-2.45-0.01-4.97-0.03-7.55c-0.02-2.58-0.05-5.24-0.11-7.97c-0.06-2.79-0.15-5.64-0.26-8.59
		s-0.25-5.98-0.42-9.09c-0.17-3.11-0.38-6.32-0.65-9.64c-0.27-3.32-0.6-6.76-0.97-10.28c-0.41-3.53-0.85-7.12-1.35-10.79
		c-0.5-3.67-1.08-7.44-1.75-11.31c-0.67-3.87-1.41-7.79-2.23-11.76c-0.82-3.97-1.72-7.98-2.72-12.04c-1-4.05-2.11-8.14-3.33-12.23
		c-1.22-4.1-2.55-8.19-3.97-12.27c-1.42-4.07-2.97-8.12-4.63-12.14c-1.66-4.02-3.42-7.97-5.3-11.86c-1.88-3.89-3.87-7.69-5.94-11.37
		c-2.08-3.69-4.26-7.26-6.54-10.69c-2.28-3.44-4.64-6.72-7.06-9.82c-2.42-3.1-4.92-6.04-7.48-8.79c-2.57-2.76-5.17-5.33-7.79-7.73
		c-2.62-2.4-5.25-4.65-7.88-6.75c-2.63-2.1-5.22-4.05-7.76-5.86c-2.54-1.81-5.01-3.49-7.41-5.03c-2.4-1.55-4.72-2.97-6.92-4.28
		s-4.31-2.52-6.32-3.67c-2.01-1.12-3.91-2.19-5.69-3.22c-1.78-1.03-3.44-2.01-4.99-2.96c-1.55-0.95-2.99-1.9-4.32-2.86
		s-2.56-1.93-3.68-2.93c-2.23-2.01-4.04-4.11-5.36-6.28c-1.33-2.17-2.16-4.37-2.47-6.53c-0.32-2.16-0.11-4.24,0.61-6.21
		s1.97-3.82,3.74-5.55c1.77-1.73,4.06-3.32,6.77-4.8c1.49-0.7,3.09-1.37,4.78-1.99c1.69-0.62,3.48-1.2,5.36-1.71
		c1.91-0.52,3.93-0.96,6.03-1.33s4.27-0.67,6.5-0.94c2.31-0.21,4.65-0.39,7-0.55s4.7-0.33,7.06-0.48c2.42-0.1,4.83-0.2,7.19-0.33
		c2.36-0.13,4.68-0.29,6.94-0.47c2.27-0.19,4.47-0.4,6.61-0.65c2.14-0.25,4.21-0.52,6.22-0.81c2.01-0.29,3.96-0.6,5.84-0.94
		c1.88-0.33,3.7-0.68,5.45-1.05c1.75-0.37,3.43-0.77,5.04-1.19c1.61-0.42,3.16-0.87,4.65-1.35c2.91-1,5.61-2.11,8.05-3.39
		c2.45-1.28,4.63-2.73,6.54-4.37c1.92-1.64,3.59-3.46,5.09-5.42c1.43-2.02,2.69-4.16,3.74-6.45c1.04-2.29,1.89-4.74,2.54-7.31
		c0.65-2.58,1.14-5.28,1.49-8.06c0.35-2.79,0.58-5.64,0.74-8.53c0.12-2.93,0.21-5.86,0.26-8.8c0.05-2.94,0.06-5.88,0.06-8.79
		c0-2.92,0-5.79,0-8.63C399.1,244.98,399.1,200,399.1,200z"/>
</g>
<g>
	<rect y="400" class="st2" width="24.5" height="200"/>
	<rect x="16.66" y="400" class="st0" width="25.71" height="200"/>
	<rect x="33.32" y="400" class="st3" width="25.55" height="200"/>
	<rect x="49.98" y="400" class="st4" width="25.69" height="200"/>
	<rect x="66.64" y="400" class="st5" width="25.05" height="200"/>
	<rect x="83.3" y="400" class="st1" width="16.7" height="200"/>
</g>
<line class="st12" x1="0" y1="400" x2="400" y2="400"/>
<line class="st13" x1="0.5" y1="600" x2="399.2" y2="600"/>
<line class="st13" x1="200.4" y1="200" x2="200.4" y2="800"/>
<g>
	<path class="st14" d="M106.9,786.2c-0.1-0.2-0.3-0.3-0.5-0.5s-0.4-0.2-0.7-0.2c-0.4,0-0.7,0.1-0.9,0.4c-0.2,0.3-0.4,0.6-0.5,1
		c-0.1-0.3-0.3-0.6-0.5-0.9c-0.2-0.2-0.5-0.3-0.8-0.3c-0.2,0-0.4,0-0.6,0.1c-0.2,0.1-0.3,0.2-0.4,0.4s-0.2,0.4-0.3,0.6
		s-0.1,0.5-0.1,0.8v1.8h5.8v-1.6c0-0.3,0-0.6-0.1-0.9C107.2,786.6,107.1,786.4,106.9,786.2z M104.1,788.7h-1.8v-1
		c0-0.3,0.1-0.6,0.2-0.8c0.1-0.2,0.4-0.3,0.6-0.3s0.3,0,0.4,0.1c0.1,0.1,0.2,0.2,0.3,0.3c0.1,0.1,0.2,0.3,0.2,0.4
		c0,0.2,0.1,0.4,0.1,0.5L104.1,788.7L104.1,788.7z M106.7,788.7h-2v-0.8c0-0.2,0-0.4,0.1-0.6c0-0.2,0.1-0.3,0.2-0.5
		c0.1-0.1,0.2-0.2,0.3-0.3c0.1-0.1,0.3-0.1,0.5-0.1c0.3,0,0.6,0.1,0.8,0.4c0.2,0.3,0.3,0.6,0.3,1v0.9H106.7z"/>
	<path class="st14" d="M107.2,777.9l-0.6,0.1c0.1,0.2,0.1,0.4,0.2,0.6c0,0.2,0.1,0.4,0.1,0.7c0,0.7-0.2,1.3-0.6,1.7s-1,0.6-1.7,0.6
		s-1.3-0.2-1.7-0.6c-0.4-0.4-0.6-1-0.6-1.7c0-0.2,0-0.4,0.1-0.7c0-0.2,0.1-0.4,0.2-0.6l-0.6-0.1c-0.1,0.2-0.1,0.4-0.2,0.7
		c0,0.3-0.1,0.6-0.1,0.8c0,0.5,0.1,0.9,0.2,1.3c0.2,0.4,0.4,0.7,0.6,0.9c0.3,0.3,0.6,0.4,0.9,0.6c0.4,0.1,0.8,0.2,1.2,0.2
		c0.4,0,0.8-0.1,1.2-0.2c0.4-0.1,0.7-0.3,0.9-0.6c0.3-0.3,0.5-0.6,0.6-0.9c0.1-0.4,0.2-0.8,0.2-1.3c0-0.3,0-0.5-0.1-0.8
		C107.3,778.3,107.3,778.1,107.2,777.9z"/>
	<path class="st14" d="M101.6,774.4h5.8v-1.6c0-0.5-0.1-0.9-0.2-1.3s-0.3-0.7-0.6-1c-0.3-0.3-0.6-0.5-0.9-0.7
		c-0.4-0.2-0.7-0.2-1.2-0.2c-0.4,0-0.8,0.1-1.1,0.2c-0.4,0.2-0.7,0.4-0.9,0.7c-0.3,0.3-0.5,0.6-0.6,1c-0.1,0.4-0.2,0.9-0.2,1.3v1.6
		H101.6z M102.2,772.8c0-0.3,0.1-0.7,0.2-1s0.2-0.6,0.4-0.8c0.2-0.2,0.4-0.4,0.7-0.5c0.3-0.1,0.6-0.2,0.9-0.2c0.4,0,0.7,0.1,1,0.2
		s0.5,0.3,0.7,0.5s0.3,0.5,0.4,0.8s0.2,0.6,0.2,1v0.8h-4.5L102.2,772.8L102.2,772.8z"/>
	<polygon class="st14" points="101.6,766.1 107.4,766.1 107.4,762.8 106.7,762.8 106.7,765.3 104.7,765.3 104.7,762.9 104.1,762.9 
		104.1,765.3 102.2,765.3 102.2,762.8 101.6,762.8 	"/>
	<polygon class="st14" points="101.6,756 101.6,759.2 107.4,759.2 107.4,758.4 104.9,758.4 104.9,756.1 104.2,756.1 104.2,758.4 
		102.2,758.4 102.2,756 	"/>
	<path class="st14" d="M107.1,748h-2.3v0.7h1.9c0,0.1,0.1,0.3,0.1,0.5s0,0.4,0,0.6c0,0.8-0.2,1.4-0.6,1.7c-0.4,0.4-1,0.6-1.7,0.6
		c-0.8,0-1.4-0.2-1.8-0.6s-0.6-1-0.6-1.7c0-0.3,0-0.5,0.1-0.8s0.1-0.5,0.2-0.8l-0.6-0.1c-0.1,0.2-0.2,0.5-0.3,0.8
		c-0.1,0.3-0.1,0.6-0.1,0.9c0,0.5,0.1,0.9,0.2,1.3c0.2,0.4,0.4,0.7,0.6,1c0.3,0.3,0.6,0.5,1,0.6c0.4,0.1,0.8,0.2,1.2,0.2
		c0.4,0,0.8-0.1,1.2-0.2c0.4-0.1,0.7-0.3,0.9-0.6c0.3-0.3,0.5-0.6,0.6-1c0.1-0.4,0.2-0.8,0.2-1.3c0-0.3,0-0.7-0.1-1
		C107.3,748.5,107.2,748.2,107.1,748z"/>
	<polygon class="st14" points="107.4,740.5 107.4,739.7 101.6,739.7 101.6,740.5 104.1,740.5 104.1,743.5 101.6,743.5 101.6,744.3 
		107.4,744.3 107.4,743.5 104.8,743.5 104.8,740.5 	"/>
	<rect x="101.6" y="735.1" class="st14" width="5.8" height="0.8"/>
	<path class="st14" d="M107.4,730.6c-0.2-0.1-0.4-0.1-0.7-0.2c-0.2,0-0.5,0-0.7,0h-4.4v0.8h4.6c0.4,0,0.8,0.1,1.1,0.2
		c0.3,0.1,0.7,0.3,1,0.6l0.4-0.6c-0.2-0.2-0.5-0.4-0.7-0.5C107.8,730.8,107.6,730.7,107.4,730.6z"/>
	<polygon class="st14" points="107.4,722.3 104.5,725 101.6,722.5 101.6,723.5 104.4,725.9 101.6,725.9 101.6,726.7 107.4,726.7 
		107.4,725.9 104.5,725.9 107.4,723.3 	"/>
	<polygon class="st14" points="107.4,716 106.7,716 106.7,718.4 101.6,718.4 101.6,719.2 107.4,719.2 	"/>
	<polygon class="st14" points="107.4,706.6 101.6,707 101.6,707.7 105.7,709.7 101.6,711.7 101.6,712.4 107.4,712.8 107.4,712.1 
		102.9,711.8 106.3,710.1 106.3,709.3 102.9,707.6 107.4,707.4 	"/>
	<polygon class="st14" points="107.4,698.2 101.6,698.2 101.6,699 106.1,699 101.6,702.2 101.6,702.9 107.4,702.9 107.4,702.2 
		102.8,702.2 107.4,699 	"/>
	<path class="st14" d="M102.4,694c0.3,0.2,0.6,0.4,1,0.5s0.7,0.2,1.1,0.2s0.8-0.1,1.1-0.2c0.4-0.1,0.7-0.3,1-0.5s0.5-0.5,0.6-0.9
		c0.2-0.4,0.2-0.8,0.2-1.2c0-0.4-0.1-0.9-0.2-1.2c-0.2-0.4-0.4-0.6-0.6-0.9c-0.3-0.2-0.6-0.4-1-0.5c-0.4-0.1-0.7-0.2-1.1-0.2
		s-0.8,0.1-1.1,0.2c-0.3,0.1-0.7,0.3-1,0.5s-0.5,0.5-0.6,0.9c-0.2,0.4-0.2,0.8-0.2,1.2c0,0.4,0.1,0.9,0.2,1.2
		C101.9,693.4,102.1,693.7,102.4,694z M102.3,691c0.1-0.3,0.3-0.5,0.5-0.6c0.2-0.2,0.5-0.3,0.7-0.4c0.3-0.1,0.6-0.1,0.9-0.1
		s0.6,0,0.9,0.1s0.5,0.2,0.7,0.4c0.2,0.2,0.4,0.4,0.5,0.6c0.1,0.3,0.2,0.5,0.2,0.9c0,0.3-0.1,0.6-0.2,0.9s-0.3,0.5-0.5,0.6
		c-0.2,0.2-0.5,0.3-0.7,0.4c-0.3,0.1-0.6,0.1-0.9,0.1s-0.6,0-0.9-0.1c-0.3-0.1-0.5-0.2-0.7-0.4c-0.2-0.2-0.4-0.4-0.5-0.6
		c-0.1-0.3-0.2-0.5-0.2-0.9C102.1,691.6,102.2,691.3,102.3,691z"/>
	<path class="st14" d="M105,683.4c-0.1-0.3-0.2-0.5-0.4-0.8c-0.2-0.2-0.3-0.4-0.6-0.5c-0.2-0.1-0.5-0.2-0.7-0.2
		c-0.3,0-0.5,0.1-0.7,0.2c-0.2,0.1-0.4,0.3-0.5,0.5c-0.1,0.2-0.2,0.4-0.3,0.7c-0.1,0.3-0.1,0.6-0.1,0.9v1.4h5.8v-0.8h-2.3v-0.4
		C105.1,684,105,683.7,105,683.4z M104.4,684.8h-2.2v-0.6c0-0.2,0-0.4,0.1-0.6c0-0.2,0.1-0.3,0.2-0.5c0.1-0.1,0.2-0.2,0.3-0.3
		c0.1-0.1,0.3-0.1,0.5-0.1s0.3,0,0.5,0.1c0.1,0.1,0.3,0.2,0.4,0.3c0.1,0.1,0.2,0.3,0.2,0.5c0.1,0.2,0.1,0.4,0.1,0.6v0.6H104.4z"/>
	<path class="st14" d="M102.4,678.3c0.3,0.2,0.6,0.4,1,0.5c0.4,0.1,0.7,0.2,1.1,0.2s0.8-0.1,1.1-0.2c0.4-0.1,0.7-0.3,1-0.5
		s0.5-0.5,0.6-0.9c0.2-0.4,0.2-0.8,0.2-1.2c0-0.1,0-0.2,0-0.2c0-0.1,0-0.2,0-0.2l1.2-1.9l-0.6-0.4l-0.9,1.4
		c-0.1-0.2-0.3-0.5-0.5-0.6c-0.2-0.2-0.4-0.3-0.6-0.5s-0.5-0.2-0.8-0.3s-0.6-0.1-0.8-0.1c-0.4,0-0.8,0.1-1.1,0.2
		c-0.3,0.1-0.7,0.3-1,0.5c-0.3,0.2-0.5,0.5-0.6,0.9c-0.2,0.4-0.2,0.8-0.2,1.2c0,0.4,0.1,0.9,0.2,1.2
		C101.9,677.8,102.1,678.1,102.4,678.3z M102.3,675.3c0.1-0.3,0.3-0.5,0.5-0.6c0.2-0.2,0.5-0.3,0.7-0.4c0.3-0.1,0.6-0.1,0.9-0.1
		s0.6,0,0.9,0.1c0.3,0.1,0.5,0.2,0.7,0.4s0.4,0.4,0.5,0.6c0.1,0.3,0.2,0.5,0.2,0.9c0,0.3-0.1,0.6-0.2,0.9c-0.1,0.3-0.3,0.5-0.5,0.6
		c-0.2,0.2-0.5,0.3-0.7,0.4c-0.3,0.1-0.6,0.1-0.9,0.1s-0.6,0-0.9-0.1c-0.3-0.1-0.5-0.2-0.7-0.4s-0.4-0.4-0.5-0.6
		c-0.1-0.3-0.2-0.5-0.2-0.9C102.1,675.9,102.2,675.6,102.3,675.3z"/>
	<path class="st14" d="M107.4,665.6l-2.5,2c-0.1-0.5-0.3-0.8-0.6-1.1c-0.3-0.3-0.6-0.4-1-0.4c-0.3,0-0.5,0.1-0.7,0.2
		c-0.2,0.1-0.4,0.3-0.5,0.5s-0.2,0.4-0.3,0.7c-0.1,0.3-0.1,0.6-0.1,0.9v1.5h5.8v-0.8h-2.3V669c0-0.1,0-0.1,0-0.2c0-0.1,0-0.1,0-0.2
		c0-0.1,0-0.1,0-0.1l2.3-1.9v-1H107.4z M104.4,669.1h-2.2v-0.7c0-0.2,0-0.4,0.1-0.5c0-0.2,0.1-0.3,0.2-0.5c0.1-0.1,0.2-0.2,0.3-0.3
		c0.1-0.1,0.3-0.1,0.5-0.1s0.4,0,0.5,0.1c0.1,0.1,0.3,0.2,0.4,0.4s0.2,0.3,0.2,0.5s0.1,0.4,0.1,0.7v0.4H104.4z"/>
	<path class="st14" d="M101.9,662.1c0.1,0.2,0.3,0.3,0.5,0.4s0.4,0.1,0.7,0.1c0.2,0,0.4,0,0.6-0.1s0.3-0.2,0.4-0.3
		c0.1-0.1,0.2-0.3,0.3-0.5c0.1-0.2,0.2-0.4,0.3-0.6c0.1-0.2,0.2-0.3,0.2-0.5c0.1-0.2,0.2-0.3,0.3-0.4c0.1-0.1,0.2-0.2,0.3-0.3
		c0.1-0.1,0.3-0.1,0.4-0.1c0.3,0,0.5,0.1,0.7,0.3c0.2,0.2,0.2,0.5,0.2,0.9c0,0.3,0,0.5-0.1,0.8s-0.1,0.5-0.2,0.7l0.6,0.2
		c0.1-0.2,0.2-0.5,0.3-0.8c0.1-0.3,0.1-0.6,0.1-0.9s0-0.5-0.1-0.8c-0.1-0.2-0.2-0.5-0.3-0.6c-0.1-0.2-0.3-0.3-0.5-0.4
		c-0.2-0.1-0.4-0.2-0.7-0.2c-0.3,0-0.5,0.1-0.7,0.2c-0.2,0.1-0.4,0.3-0.5,0.4c-0.1,0.2-0.3,0.4-0.4,0.6s-0.2,0.4-0.3,0.6
		c-0.1,0.2-0.2,0.3-0.2,0.5s-0.1,0.2-0.2,0.3c-0.1,0.1-0.2,0.1-0.3,0.2c-0.1,0-0.2,0.1-0.3,0.1c-0.5,0-0.8-0.3-0.8-1
		c0-0.2,0-0.5,0.1-0.7s0.1-0.4,0.2-0.6l-0.6-0.1c-0.1,0.2-0.2,0.4-0.3,0.7c-0.1,0.3-0.1,0.5-0.1,0.8s0,0.5,0.1,0.7
		C101.7,661.8,101.7,662,101.9,662.1z"/>
	<polygon class="st14" points="102.2,654.5 107.4,654.5 107.4,653.7 102.2,653.7 102.2,652 101.6,652 101.6,656.2 102.2,656.2 	"/>
	<path class="st14" d="M106.2,648.6c0.3-0.1,0.5-0.2,0.7-0.4s0.3-0.4,0.5-0.7c0.1-0.3,0.2-0.6,0.2-1s-0.1-0.7-0.2-1
		s-0.3-0.5-0.5-0.7s-0.4-0.3-0.7-0.4c-0.3-0.1-0.5-0.1-0.8-0.1h-3.8v0.8h3.8c0.4,0,0.8,0.1,1.1,0.4s0.4,0.6,0.4,1.1
		s-0.1,0.8-0.4,1.1s-0.6,0.4-1.1,0.4h-3.8v0.6h3.7C105.6,648.7,105.9,648.7,106.2,648.6z"/>
	<polygon class="st14" points="107.4,638.1 101.6,636.1 101.6,636.9 106.4,638.5 101.6,640.2 101.6,641 107.4,639 	"/>
	<polygon class="st14" points="107.4,630.8 102.4,629.4 107.4,627.9 107.4,627.1 101.6,625.5 101.6,626.3 106.3,627.5 101.6,628.9 
		101.6,629.8 106.3,631.2 101.6,632.5 101.6,633.2 107.4,631.6 	"/>
	<polygon class="st14" points="107.4,622.6 107.4,621.8 105.1,620.3 107.4,618.8 107.4,618 104.5,619.9 101.6,618 101.6,618.8 
		103.8,620.3 101.6,621.8 101.6,622.6 104.5,620.7 	"/>
	<polygon class="st14" points="107.4,613.3 107.4,612.5 105.1,612.5 101.6,610.6 101.6,611.5 104.3,612.9 101.6,614.4 101.6,615.2 
		105.1,613.3 	"/>
	<path class="st14" d="M53.3,660.5l-35.6,79.2l8.9,4l11.9-26.5H77l11.9,26.5l8.9-4l-35.6-79.2H53.3z M42.9,707.4l14.9-33.1
		l14.9,33.1H42.9z"/>
	<polygon class="st14" points="181.3,665.5 177.4,657.6 122.1,657.6 122.1,667.3 167.4,667.3 114.8,734.2 118.6,742.1 182.3,742.1 
		182.3,732.3 128.6,732.3 	"/>
</g>
<line class="st15" x1="0" y1="800" x2="400" y2="800"/>
<line class="st15" x1="0" y1="200" x2="0" y2="800"/>
<line class="st15" x1="400" y1="200" x2="400" y2="800"/>
<line class="st15" x1="0" y1="200" x2="400" y2="200"/>
</svg>
